<svg xmlns="http://www.w3.org/2000/svg" width="24" height="24" fill="none"><g clip-path="url(#a)"><mask id="b" width="24" height="24" x="0" y="0" maskUnits="userSpaceOnUse" style="mask-type:luminance"><path fill="#fff" d="M0 0h24v24H0z"/></mask><g mask="url(#b)"><path fill="url(#c)" d="M12 24c6.627 0 12-5.373 12-12S18.627 0 12 0 0 5.373 0 12s5.373 12 12 12"/><mask id="e" width="24" height="24" x="0" y="0" maskUnits="userSpaceOnUse" style="mask-type:alpha"><path fill="url(#d)" d="M12 24c6.627 0 12-5.373 12-12S18.627 0 12 0 0 5.373 0 12s5.373 12 12 12"/></mask><g mask="url(#e)"><path fill="url(#f)" d="M-.4 6.6a.48.48 0 0 1 .48-.48h6.56a.48.48 0 0 1 .48.48v11.16a.48.48 0 0 1-.48.48H.08a.48.48 0 0 1-.48-.48z" opacity=".2"/><path fill="#E74310" d="M14.48 16.28a.48.48 0 0 1 .48-.48h8.56a.48.48 0 0 1 .48.48v4.16a.48.48 0 0 1-.48.48h-8.56a.48.48 0 0 1-.48-.48z" opacity=".2"/><path fill="#DF3600" d="M20.04 17.56a.48.48 0 0 1 .48.48v8.08a.48.48 0 0 1-.48.48h-3.16a.48.48 0 0 1-.48-.48v-8.08a.48.48 0 0 1 .48-.48z" opacity=".2"/><path fill="url(#g)" d="M9.72 7.8a.48.48 0 0 1 .48.48v6.44a.48.48 0 0 1-.48.48H6.16a.48.48 0 0 1-.48-.48V8.28a.48.48 0 0 1 .48-.48z" opacity=".1"/><path fill="url(#h)" d="M2.28 9.72a.48.48 0 0 1 .48-.48H8.6a.48.48 0 0 1 .48.48v6.12a.48.48 0 0 1-.48.48H2.76a.48.48 0 0 1-.48-.48z" opacity=".1"/><path fill="#FF9776" d="M24 3.28a.48.48 0 0 1 .48.48v8.08a.48.48 0 0 1-.48.48h-7.44a.48.48 0 0 1-.48-.48V3.76a.48.48 0 0 1 .48-.48z" opacity=".2"/><path fill="#FFCA8C" d="M19.48-2.08a.48.48 0 0 1 .48.48v8.88a.48.48 0 0 1-.48.48h-4.16a.48.48 0 0 1-.48-.48V-1.6a.48.48 0 0 1 .48-.48z" opacity=".2"/><path fill="url(#i)" d="M21.64-.48a.48.48 0 0 1 .48.48v9.88a.48.48 0 0 1-.48.48H12.6a.48.48 0 0 1-.48-.48V0a.48.48 0 0 1 .48-.48z" opacity=".2"/><path fill="#DF3600" d="M8.48-3.28a.48.48 0 0 1 .48.48v6.64a.48.48 0 0 1-.48.48H5.32a.48.48 0 0 1-.48-.48V-2.8a.48.48 0 0 1 .48-.48zm.36 20.6a.48.48 0 0 1 .48.48v5.72a.48.48 0 0 1-.48.48H.8a.48.48 0 0 1-.48-.48V17.8a.48.48 0 0 1 .48-.48z" opacity=".1"/><path fill="#FFD494" d="M15.92 14.12a.48.48 0 0 1 .48.48v8.92a.48.48 0 0 1-.48.48h-9.2a.48.48 0 0 1-.48-.48V14.6a.48.48 0 0 1 .48-.48z" opacity=".1"/><path fill="#FFD494" d="M12.88 0a.48.48 0 0 1 .48.48V2.8a.48.48 0 0 1-.48.48h-9.6a.48.48 0 0 1-.48-.48V.48A.48.48 0 0 1 3.28 0z" opacity=".2"/><path fill="#DF3600" d="M23.286 5.79 5.31 23.766l-.617-.616L22.67 5.173zm-1.348-1.31L3.96 22.458l-.802-.803L21.135 3.68z" opacity=".1"/><path fill="#F45C2C" d="M21.18 3.643 3.202 21.619l-.803-.803L20.376 2.84z" opacity=".1"/><path fill="#F45C2C" d="M20.459 2.763 2.483 20.739l-.66-.66L19.797 2.101z" opacity=".2"/><path fill="#FFBC6E" d="M19.797 2.1 1.821 20.078l-.661-.66L19.136 1.44z" opacity=".1"/><path fill="#DF3600" d="M19.357 1.22 1.381 19.198l-.661-.66L18.696.56z" opacity=".1"/><path fill="#FFD5A4" d="M13.435-.258-.739 13.917l-.661-.66L12.775-.919z" opacity=".09"/><path fill="#FFD5A4" d="M12.675-1.06-1.499 13.116l-.661-.66L12.015-1.72z" opacity=".08"/><path fill="#FFD5A4" d="M11.995-1.98-2.179 12.196l-.661-.66L11.335-2.64z" opacity=".05"/><path fill="#FFD5A4" d="M16.844-.62.38 15.845l-.661-.661L16.183-1.28zm.44 1.04L.82 16.885l-.661-.661L16.623-.24z" opacity=".2"/><path fill="#FFD5A4" d="M14.712.026.101 14.637l-.661-.66L14.051-.636z" opacity=".1"/><path fill="#DF3600" d="M23.26 5.803 5.283 23.78l-1.318-1.318L21.942 4.485z" opacity=".1"/><path fill="#DF3600" d="M23.26 5.803 5.283 23.78 3.96 22.455 21.935 4.479z" opacity=".1"/></g><path fill="#fff" d="m11.982 14.59-4.565-2.702 4.565-7.573 4.562 7.573z"/><path fill="#fff" d="m11.982 19.188-4.565-6.43 4.565 2.696 4.566-2.697z"/></g></g><defs><linearGradient id="f" x1="3.36" x2="3.36" y1="6.12" y2="18.24" gradientUnits="userSpaceOnUse"><stop stop-color="#FFE090"/><stop offset="1" stop-color="#FFE090" stop-opacity="0"/></linearGradient><linearGradient id="g" x1="7.92" x2="7.92" y1="7.8" y2="14.64" gradientUnits="userSpaceOnUse"><stop stop-color="#DF3600"/><stop offset="1" stop-color="#DF3600" stop-opacity="0"/></linearGradient><linearGradient id="h" x1="2.28" x2="8.565" y1="12.811" y2="12.811" gradientUnits="userSpaceOnUse"><stop stop-color="#DF3600"/><stop offset="1" stop-color="#DF3600" stop-opacity="0"/></linearGradient><linearGradient id="i" x1="17.12" x2="17.12" y1="-.48" y2="10.36" gradientUnits="userSpaceOnUse"><stop stop-color="#DF3600"/><stop offset="1" stop-color="#DF3600" stop-opacity="0"/></linearGradient><radialGradient id="c" cx="0" cy="0" r="1" gradientTransform="rotate(54.167 -1.692 10.536)scale(19.8833)" gradientUnits="userSpaceOnUse"><stop stop-color="#FFD794"/><stop offset="1" stop-color="#ED5A37"/></radialGradient><radialGradient id="d" cx="0" cy="0" r="1" gradientTransform="rotate(54.167 -1.692 10.536)scale(19.8833)" gradientUnits="userSpaceOnUse"><stop stop-color="#FFD794"/><stop offset="1" stop-color="#ED5A37"/></radialGradient><clipPath id="a"><path fill="#fff" d="M0 0h24v24H0z"/></clipPath></defs></svg>