<svg xmlns="http://www.w3.org/2000/svg" width="24" height="24" fill="none"><g clip-path="url(#a)"><path fill="url(#b)" d="M12 24c6.628 0 12-5.372 12-12 0-6.627-5.372-12-12-12C5.373 0 0 5.373 0 12c0 6.628 5.373 12 12 12"/><mask id="c" width="12" height="16" x="6" y="4" maskUnits="userSpaceOnUse" style="mask-type:alpha"><path fill="#fff" fill-rule="evenodd" d="m7.02 12.48-.091.152.252.354a2.2 2.2 0 0 1-.16-.505m.3-.492q1.47.737 4.158-.432 2.825-1.229 4.628-.298.113.058.21.123L12.01 4.265zm9.689.54q.01.089.013.173l.05-.07zm-.354.69c-1.36-1.034-2.838-.968-4.863-.087q-2.431 1.057-3.866.556a1.2 1.2 0 0 1-.426-.255l4.51 6.323z" clip-rule="evenodd"/></mask><g mask="url(#c)"><path fill="#7591F2" d="m12.011 4.245-.149.348v7.427h.15l5.464-.76z"/><path fill="#fff" d="m12.01 4.205-4.786 7.93 4.786 2.825z"/><path fill="#7591F2" d="m11.999 13.05-.06 2.89v3.663l.06.172 5.003-7.065-2.24-1.657z"/><path fill="#fff" d="M12.01 19.775v-6.726H7.224z"/></g></g><defs><linearGradient id="b" x1="10.972" x2="11.217" y1="23.486" y2="-18.719" gradientUnits="userSpaceOnUse"><stop stop-color="#3068EF"/><stop offset="1" stop-color="#1322AC"/></linearGradient><clipPath id="a"><path fill="#fff" d="M0 0h24v24H0z"/></clipPath></defs></svg>