<svg width="27" height="28" viewBox="0 0 27 28" fill="none" xmlns="http://www.w3.org/2000/svg">
<g clip-path="url(#clip0_123_1887)">
<path d="M6.31801 13.7085C3.64084 13.7019 1.21468 14.952 -0.317764 17.0898C0.150717 19.1866 1.09803 21.1712 2.47608 22.8698L6.31222 16.263L13.1087 28.05C15.0228 28.082 16.9206 27.722 18.6818 27.0006L13.3751 17.8058C11.9067 15.2476 9.26865 13.7161 6.31892 13.709L6.31801 13.7085Z" fill="white"/>
<path d="M17.1634 8.10181C18.508 5.78549 18.638 3.05765 17.551 0.660478C15.4467 -0.00162843 13.2566 -0.141045 11.1522 0.19631L14.9539 6.81892L1.3515 6.81178C1.30878 6.88368 1.26463 6.95597 1.22281 7.02839C0.280397 8.6607 -0.295432 10.4045 -0.532122 12.163L10.0872 12.1644C13.037 12.1714 15.682 10.653 17.1634 8.10181Z" fill="white"/>
<path d="M26.4504 19.0444L18.8117 19.0256L25.6209 7.24641C24.716 5.6086 23.4743 4.13603 21.9258 2.94386L16.6173 12.1384C15.1351 14.6891 15.1281 17.739 16.5964 20.2973C17.9299 22.6207 20.2286 24.0963 22.849 24.3538C23.8692 23.4146 24.7671 22.307 25.4967 21.0432C25.8725 20.3922 26.1894 19.7242 26.4504 19.0444Z" fill="white"/>
</g>
<defs>
<clipPath id="clip0_123_1887">
<rect width="26.1562" height="27" fill="white" transform="translate(0 0.5)"/>
</clipPath>
</defs>
</svg>
