<svg xmlns="http://www.w3.org/2000/svg" width="26" height="26" fill="none"><g clip-path="url(#a)"><path fill="#1F0061" d="M26 13c0 7.18-5.82 13-13 13S0 20.18 0 13 5.82 0 13 0s13 5.82 13 13Z"/><path fill="url(#b)" d="M17.721 8.412c-1.023 0-2.143.558-3.325 1.658a14.595 14.595 0 0 0-1.407 1.524s.573.66 1.202 1.372c.343-.43.829-1.013 1.397-1.54 1.049-.983 1.734-1.182 2.128-1.182 1.474 0 2.671 1.238 2.671 2.768 0 1.514-1.197 2.752-2.67 2.768-.072 0-.154-.01-.256-.031.43.2.895.343 1.33.343 2.701 0 3.233-1.868 3.264-2 .077-.344.123-.702.123-1.07-.005-2.543-2-4.61-4.457-4.61Z"/><path fill="url(#c)" d="M8.28 17.611c1.024 0 2.144-.558 3.326-1.658a14.593 14.593 0 0 0 1.407-1.524s-.573-.66-1.202-1.371c-.343.43-.829 1.013-1.397 1.54-1.049.972-1.74 1.181-2.128 1.181-1.474 0-2.671-1.238-2.671-2.768 0-1.514 1.197-2.752 2.67-2.767.072 0 .154.01.257.03-.43-.2-.896-.343-1.33-.343-2.702-.005-3.234 1.863-3.265 2.001-.077.343-.123.7-.123 1.07 0 2.542 1.996 4.61 4.457 4.61Z"/><path fill="#29ABE2" fill-rule="evenodd" d="M10.337 11.467c-.297-.287-1.74-1.459-3.121-1.5-2.466-.06-3.188 1.73-3.254 1.96.475-2.006 2.235-3.505 4.323-3.515 1.704 0 3.428 1.673 4.702 3.182l.005-.005s.573.66 1.202 1.372c0 0 .717.844 1.474 1.586.297.286 1.734 1.442 3.116 1.483 2.533.072 3.233-1.821 3.27-1.964-.466 2.02-2.231 3.525-4.33 3.535-1.703 0-3.427-1.673-4.706-3.182 0 .005-.005.005-.005.01 0 0-.573-.66-1.202-1.371.005 0-.712-.85-1.474-1.591Z" clip-rule="evenodd"/></g><defs><linearGradient id="b" x1="8.493" x2="15.132" y1="9.285" y2="20.447" gradientUnits="userSpaceOnUse"><stop offset=".21" stop-color="#F15A24"/><stop offset=".684" stop-color="#FBB03B"/></linearGradient><linearGradient id="c" x1="17.512" x2="10.873" y1="16.739" y2="5.577" gradientUnits="userSpaceOnUse"><stop offset=".21" stop-color="#ED1E79"/><stop offset=".893" stop-color="#522785"/></linearGradient><clipPath id="a"><path fill="#fff" d="M0 0h26v26H0z"/></clipPath></defs></svg>
