<svg width="82" height="32" viewBox="0 0 82 32" fill="none" xmlns="http://www.w3.org/2000/svg">
<g clip-path="url(#clip0_2204_1973)">
<path fill-rule="evenodd" clip-rule="evenodd" d="M60.3388 0L56.6295 2.38419e-07L52.2185 31.5395H55.9277H55.9463L60.3388 0ZM81.9922 0.116917H78.2466V12.0946H77.3652C76.1314 10.5436 74.1043 9.16484 70.623 9.16484C64.4537 9.16484 60.7521 14.0766 60.7521 20.5825C60.7521 27.0453 64.4537 32.0001 70.623 32.0001C74.1043 32.0001 76.2636 30.5783 77.4974 29.0703H78.3788V31.44H81.9922V0.116917ZM78.2906 20.5825C78.2906 24.8048 76.2636 28.8118 71.3281 28.8118C66.8333 28.8118 64.4978 25.408 64.4978 20.5825C64.4978 15.7569 66.8333 12.3532 71.3281 12.3532C76.2636 12.3532 78.2906 16.317 78.2906 20.5825ZM20.2707 15.6276C22.9147 16.834 24.7214 19.6346 24.7214 22.7798C24.7214 27.6915 21.1961 31.44 14.0573 31.44H0V0.677026H13.7047C20.4029 0.677026 23.7519 4.25311 23.7519 8.47547C23.7519 11.2329 22.5621 13.5595 20.2707 14.7659V15.6276ZM3.966 4.12386V13.7319H13.6166C17.0979 13.7319 19.7419 12.6548 19.7419 8.82016C19.7419 5.33025 16.7013 4.12386 13.5285 4.12386H3.966ZM13.7929 27.9931C17.3623 27.9931 20.7113 26.7006 20.7113 22.4782C20.7113 18.4713 17.5385 17.1356 13.8369 17.1356H3.966V27.9931H13.7929ZM38.9254 9.16484C45.8439 9.16484 49.8539 14.1197 49.8539 20.5825C49.8539 27.0453 45.8439 32.0001 38.9254 32.0001C31.9629 32.0001 27.9969 27.0453 27.9969 20.5825C27.9969 14.1197 31.9629 9.16484 38.9254 9.16484ZM38.9254 28.8118C43.8168 28.8118 46.1083 24.8479 46.1083 20.5825C46.1083 16.3601 43.8168 12.3532 38.9254 12.3532C33.9899 12.3532 31.7425 16.3601 31.7425 20.5825C31.7425 24.8479 33.9899 28.8118 38.9254 28.8118Z" fill="#9EA2B8"/>
</g>
<defs>
<clipPath id="clip0_2204_1973">
<rect width="82" height="32" fill="white"/>
</clipPath>
</defs>
</svg>
