<svg width="138" height="138" viewBox="0 0 138 138" fill="none" xmlns="http://www.w3.org/2000/svg">
<circle cx="69" cy="69" r="69" fill="#00F99B"/>
<path d="M96.6085 32.6699L72.0365 32.6699C52.4244 32.6699 36.5258 48.5684 36.5254 68.1804V77.4983C36.5254 77.7375 36.7195 77.9316 36.9587 77.9316H41.9139C42.153 77.9316 42.3471 77.7379 42.3471 77.4983V68.1804C42.3471 51.7836 55.6396 38.4914 72.0365 38.4914H105.2C105.532 38.4914 105.739 38.1344 105.563 37.8535C103.675 34.8499 100.849 32.6725 96.6159 32.6699C96.6137 32.6699 96.6111 32.6699 96.6085 32.6699Z" fill="#2B2B2B"/>
<path d="M108.719 46.9991C108.684 46.7922 108.504 46.6416 108.294 46.6416H72.0375C59.8204 46.6416 49.9164 56.5457 49.916 68.763V77.4986C49.916 77.7377 50.1101 77.9318 50.3493 77.9318H54.0047C54.9618 77.9318 55.7378 77.1559 55.7378 76.1988V68.763C55.7378 59.7608 63.0356 52.4631 72.0375 52.4631H108.842C109.09 52.4631 109.287 52.2561 109.273 52.009C109.192 50.6034 109.033 48.8596 108.719 46.9991Z" fill="#2B2B2B"/>
<path d="M41.3917 105.661H65.9638C85.5758 105.661 101.474 89.7628 101.474 70.1508L101.475 60.8328C101.475 60.5935 101.281 60.3995 101.042 60.3995L96.0864 60.3994C95.8472 60.3994 95.6531 60.5934 95.6531 60.8327V70.1507C95.6531 86.5475 82.3606 99.8396 65.9638 99.8396H32.8001C32.4682 99.8396 32.2611 100.197 32.4374 100.478C34.3247 103.481 37.1513 105.659 41.3839 105.661C41.3865 105.661 41.3891 105.661 41.3917 105.661Z" fill="#2B2B2B"/>
<path d="M29.281 91.332C29.3161 91.5391 29.4959 91.6898 29.706 91.6898H65.9623C78.1799 91.6898 88.0839 81.7854 88.0839 69.5683V60.8327C88.0839 60.5934 87.8902 60.3994 87.6506 60.3994H83.9956C83.0385 60.3994 82.2625 61.1753 82.2625 62.1325V69.5683C82.2625 78.5706 74.9647 85.8681 65.9623 85.8681H29.158C28.9106 85.8681 28.713 86.0752 28.7273 86.3221C28.8074 87.7281 28.9669 89.4715 29.281 91.332Z" fill="#2B2B2B"/>
</svg>
