<svg xmlns="http://www.w3.org/2000/svg" width="54" height="54" fill="none"><g clip-path="url(#a)"><path fill="#2973EB" d="M27 54c14.912 0 27-12.088 27-27S41.912 0 27 0 0 12.088 0 27s12.088 27 27 27Z"/><path fill="#fff" d="M41.038 20.52v2.16H38.88v2.16h-2.16V27h-2.16v2.16h-2.16v2.16h-2.16v2.16h-2.16v2.159h8.64v-2.16h4.32V31.32h2.16v-2.16h2.16v-4.32h2.16v-4.32h-6.48ZM34.559 22.68h2.16v-4.32H32.4v2.16h2.16v2.16ZM32.4 27v-2.16h2.159v-2.16h-2.16v-2.16h-2.16v4.32h-2.16V27h4.32Z"/><path fill="#010101" d="M45.358 18.36V16.2H43.2v-2.159H32.4v2.16h-2.16v2.158h-2.16v2.161H25.92v2.16H23.76v2.16h-6.48v-2.16h2.162v-2.16H21.6v-2.16h-6.48v2.16H12.96v-2.16h-6.48v2.16h2.162v2.16H10.8v2.16h2.159v6.48h2.161v2.16h2.16v2.159h4.32v4.32h4.32v-2.16h2.16v-4.32h2.158V31.32H32.4v-2.16h2.159V27h2.16v-2.16h2.16v-2.16h2.16v-2.16h6.48v-2.16h-2.16Zm-10.8 4.32v2.16H32.4V27h-4.32v-2.16h2.158v-4.32H32.4v-2.16h4.32v4.32h-2.161Z"/><path fill="#010101" d="M34.559 20.52h-2.16v2.16h2.16v-2.16ZM30.238 35.639v4.32H32.4v-2.16h2.159v-2.16h-4.32Z"/></g><defs><clipPath id="a"><path fill="#fff" d="M0 0h54v54H0z"/></clipPath></defs></svg>