<svg xmlns="http://www.w3.org/2000/svg" width="24" height="24" fill="none"><path fill="url(#a)" d="M12 24c6.628 0 12-5.373 12-12S18.628 0 12 0C5.373 0 0 5.373 0 12s5.373 12 12 12Z"/><path d="M10 6V4M14 6V4M14 6H7M14 6C15.6569 6 17 7.34315 17 9C17 10.6569 15.6569 12 14 12M9 18L9 12M9 6V12M10 20V18M14 20V18M9 12H15C16.6569 12 18 13.3431 18 15C18 16.6569 16.6569 18 15 18H7" stroke="#000" stroke-width="2" stroke-linecap="round" stroke-linejoin="round"/><defs><linearGradient id="a" x1=".852" x2="23.853" y1="12" y2="30" gradientUnits="userSpaceOnUse"><stop stop-color="#E49D2F"/><stop offset="1" stop-color="#FFF"/></linearGradient></defs></svg>

