<svg xmlns="http://www.w3.org/2000/svg" width="512" height="512" viewBox="0 0 512 512" fill="none">
<rect width="512" height="512" rx="246.154" fill="#F6AE3F"/>
<path opacity="0.9" d="M193.758 120.123H188.895C182.021 120.123 175.668 123.794 172.22 129.76L105.135 245.804C101.666 251.804 101.666 259.21 105.135 265.211L170 377.414L167.459 325.583C167.442 325.237 167.532 324.895 167.692 324.588C169.221 321.659 169.156 318.133 167.491 315.251L132.953 255.507L186.058 163.644L214.638 211.776L191.91 251.273C190.188 254.265 190.188 257.952 191.91 260.944L214.994 301.057L176.107 366.546L176.363 366.698L170 377.414L172.22 381.255C175.668 387.22 182.021 390.892 188.895 390.892H323.102C329.976 390.892 336.329 387.22 339.777 381.255L404.086 270.013L359.878 298.739C359.592 298.925 359.258 299.019 358.917 299.038C355.683 299.214 352.738 301.011 351.102 303.842L317.55 361.881H212.536L240.532 314.732H284.768C288.211 314.732 291.393 312.889 293.115 309.897L316.066 270.013H404.086L406.862 265.211C410.331 259.21 410.331 251.805 406.862 245.804L339.777 129.76C336.329 123.794 329.976 120.123 323.102 120.123H193.758L241.585 144.156C241.888 144.308 242.137 144.546 242.325 144.828C244.105 147.508 247.111 149.134 250.344 149.134H317.55L370.659 241.002H315.374L293.115 202.32C291.393 199.328 288.211 197.485 284.768 197.485H239.811L200.949 132.038L200.864 132.089L193.758 120.123Z" fill="#0A0A0A"/>
</svg>