<svg width="60" height="60" viewBox="0 0 60 60" fill="none" xmlns="http://www.w3.org/2000/svg" class="h-[18px] w-[18px]"><circle cx="30" cy="30" r="30" fill="#645218"></circle><path d="M41.9323 43.7727H18.3253M36.3984 24.3056L31.2762 16.8321C30.7237 16.026 29.534 16.026 28.9815 16.8321L23.8593 24.3056C23.4149 24.954 22.5219 25.1056 21.8884 24.6402L17.3456 21.303C16.314 20.5452 14.8929 21.4653 15.1622 22.7166L18.0889 36.3155C18.2268 36.9563 18.7934 37.4139 19.4488 37.4139H40.8089C41.4643 37.4139 42.0308 36.9563 42.1687 36.3155L45.0954 22.7166C45.3648 21.4653 43.9436 20.5452 42.9121 21.303L38.3693 24.6402C37.7358 25.1056 36.8428 24.954 36.3984 24.3056Z" stroke="#FFC100" stroke-width="3.81528" stroke-linecap="round"></path></svg>