<svg xmlns="http://www.w3.org/2000/svg" width="24" height="24" fill="none"><rect width="24" height="24" fill="#5BB3E5" rx="12"/><path fill="#705ED7" d="m13.535.037-.66 4.15c1.136.224 1.793.661 2.475 1.394.72.775 1.225.862 1.395 1.954h-1.674c-.157-.569-1.067-.802-1.536-1.116-.455-.33-1.059-.494-1.811-.494-.839 0-1.485.187-1.94.561-.454.374-1.194.87-.853 1.886 0 .494.555 1.375.853 1.675.299.299.66.393 1.1.558.44.15 1.18.348 1.99.558 1.052.24 1.808.553 2.476.837.667.27.647.518 1.116 1.116.469.599.837 1.2.837 2.233 0 .733.388 1.38.047 2.023-.327.643-.817 1.182-1.47 1.616-.654.434-1.436.733-2.345.898v3.956c5.903-.753 10.466-5.795 10.466-11.903C24 5.832 19.438.79 13.535.037Z"/><path fill="#fff" d="M12.001 0c.52 0 1.032.033 1.534.097v3.98c1.137.224 2.047.702 2.729 1.436.72.774 1.108 1.646 1.278 2.738h-2.728a2.26 2.26 0 0 0-.938-1.324c-.454-.33-1.058-.493-1.81-.493-.839 0-1.485.186-1.94.56-.455.374-.683.846-.683 1.414 0 .494.15.891.449 1.19.298.3.667.531 1.107.696.44.15 1.066.33 1.876.539 1.051.24 1.91.5 2.578.785.668.27 1.236.704 1.705 1.302.469.598.703 1.415.703 2.447a4.35 4.35 0 0 1-.511 2.066c-.327.643-.817 1.181-1.47 1.615-.654.434-1.436.734-2.345.898v3.956a12.118 12.118 0 0 1-2.749.037v-3.948c-1.293-.194-2.35-.688-3.175-1.481-.81-.793-1.3-1.841-1.47-3.143h2.727c.17.703.526 1.25 1.066 1.639.54.374 1.229.56 2.067.56.696 0 1.272-.089 1.726-.268.455-.195.788-.457 1.002-.786.24-.372.32-.71.32-1.145 0-.464-.143-.83-.427-1.1a2.408 2.408 0 0 0-1.044-.628c-.426-.15-1.03-.315-1.811-.494-1.066-.24-1.82-.43-2.621-.763-.682-.284-1.272-.741-1.77-1.37-.496-.628-.745-1.496-.745-2.604 0-1.197.376-2.177 1.129-2.94.753-.778 1.762-1.265 3.026-1.46V.06c.4-.04.805-.06 1.215-.06Z"/></svg>
