<svg xmlns="http://www.w3.org/2000/svg" width="24" height="24" fill="none"><rect width="24" height="24" x=".5" fill="#5BB3E5" rx="12"/><path fill="#705ED7" d="m14.034.037-.66 4.15c1.136.224 1.793.661 2.475 1.394.72.775 1.225.862 1.395 1.954H15.57c-.156-.569-1.067-.802-1.536-1.116-.454-.33-1.058-.494-1.811-.494-.838 0-1.485.187-1.94.561-.454.374-1.194.87-.853 1.886 0 .494.555 1.375.854 1.675.298.299.66.393 1.1.558.44.15 1.18.348 1.99.558 1.051.24 1.807.553 2.475.837.668.27.647.518 1.116 1.116.469.599.837 1.2.837 2.233 0 .733.388 1.38.047 2.023-.327.643-.817 1.182-1.47 1.616-.654.434-1.435.733-2.345.898v3.956C19.937 23.09 24.5 18.047 24.5 11.94 24.5 5.832 19.937.79 14.034.037Z"/><path fill="#fff" fill-rule="evenodd" d="M8.11 18.51c.824.793 1.882 1.287 3.175 1.481v3.948a12.158 12.158 0 0 0 2.75-.036v-3.957c.909-.164 1.69-.464 2.344-.898.653-.434 1.143-.972 1.47-1.616a4.346 4.346 0 0 0 .511-2.065c0-1.033-.234-1.848-.703-2.447a4.082 4.082 0 0 0-1.705-1.302c-.667-.284-1.527-.546-2.578-.785-.81-.21-1.435-.39-1.876-.539a3.044 3.044 0 0 1-1.108-.696c-.298-.3-.447-.696-.447-1.19 0-.568.227-1.04.682-1.414.454-.374 1.1-.56 1.939-.56.753 0 1.357.164 1.811.493.47.314.782.756.938 1.324h2.728c-.17-1.092-.558-1.963-1.279-2.738-.682-.733-1.591-1.212-2.728-1.437V.097a12.116 12.116 0 0 0-2.749-.036v3.948c-1.264.194-2.273.68-3.026 1.459-.753.763-1.13 1.743-1.13 2.94 0 1.108.25 1.976.747 2.604.497.629 1.086 1.085 1.768 1.37.801.333 1.556.523 2.622.763.781.18 1.385.344 1.811.494.426.134.774.344 1.044.628.284.27.426.636.426 1.1 0 .434-.079.773-.32 1.145-.212.33-.546.59-1 .785-.456.18-1.03.27-1.727.27-.838 0-1.527-.187-2.067-.561-.54-.39-.895-.936-1.066-1.639H6.64c.17 1.302.66 2.35 1.47 3.143Z" clip-rule="evenodd"/></svg>
