<svg width="251" height="251" viewBox="0 0 251 251" fill="none" xmlns="http://www.w3.org/2000/svg">
<g clip-path="url(#clip0_225_21)">
<path d="M125.5 249C193.707 249 249 193.707 249 125.5C249 57.2928 193.707 2 125.5 2C57.2928 2 2 57.2928 2 125.5C2 193.707 57.2928 249 125.5 249Z" fill="#A693AE" stroke="white" stroke-width="4"/>
<path d="M66.1099 96.5601H92.02C93.9919 96.5601 95.8352 97.5557 96.9126 99.1948L125.882 143.265L126.306 143.909L126.721 143.259L154.861 99.2495L154.862 99.2485C155.929 97.5744 157.789 96.5602 159.79 96.5601H186.16C189.388 96.5601 192 99.1504 192 102.35V161.34C192 164.531 189.397 167.13 186.16 167.13H174.59V167.12H174.09C170.862 167.12 168.25 164.529 168.25 161.33V117.649L167.329 119.09L138.349 164.431L138.348 164.432C137.281 166.116 135.421 167.13 133.42 167.13H119.62C117.648 167.13 115.805 166.135 114.728 164.496L84.938 119.196L84.02 117.799V161.34C84.0199 164.531 81.417 167.13 78.1802 167.13H66.1099C62.882 167.13 60.2702 164.54 60.27 161.34V102.35C60.27 99.1594 62.873 96.5601 66.1099 96.5601Z" fill="white" stroke="white"/>
<path d="M186.46 81.5059C197.969 81.7694 207.24 91.1064 207.24 102.55V161.02C207.24 172.618 197.699 182.07 185.96 182.07H173.98C165.362 182.07 157.71 176.89 154.419 169.291L154.045 168.428L153.538 169.221L151.578 172.291C147.661 178.416 140.941 182.08 133.61 182.08H119.91C112.697 182.08 106.035 178.513 102.088 172.524L99.4775 168.564L98.9473 167.76L98.5947 168.657C97.4232 171.641 95.5557 174.343 93.1367 176.537L92.6455 176.97C88.7765 180.272 83.8514 182.08 78.7598 182.08H66.7803C55.0414 182.08 45.5002 172.639 45.5 161.03V130.29C45.5 129.491 46.1616 128.83 46.9805 128.83C47.8007 128.83 48.46 129.483 48.46 130.29V161.03C48.4601 171.031 56.6785 179.16 66.7695 179.16H78.75C83.1287 179.16 87.363 177.597 90.6836 174.76L90.6846 174.761C93.9638 171.965 96.1441 168.108 96.8232 163.89L96.8242 163.884C96.9122 163.298 97.37 162.818 97.9736 162.689L97.9727 162.688C98.5816 162.561 99.1953 162.816 99.5322 163.324V163.325L104.553 170.945C107.946 176.097 113.683 179.17 119.89 179.17H133.6C139.899 179.17 145.678 176.024 149.061 170.75H149.062L153.312 164.109L153.312 164.107C153.632 163.603 154.237 163.338 154.838 163.451L154.844 163.452C155.4 163.549 155.842 163.961 155.994 164.492L156.021 164.601C157.739 173.046 165.276 179.17 173.98 179.17H185.96C196.051 179.17 204.27 171.041 204.27 161.04V102.57C204.27 92.5792 196.051 84.4502 185.96 84.4502H159.78C153.678 84.4502 148.064 87.4022 144.644 92.3818L144.319 92.8701L127.619 118.94L127.617 118.943C127.348 119.37 126.876 119.63 126.38 119.63H126.36C125.92 119.63 125.51 119.441 125.229 119.113L125.117 118.965L107.817 92.6953C105.135 88.626 101.043 85.8379 96.2734 84.8506H96.2744C95.4552 84.6761 94.9492 83.8955 95.1182 83.1162C95.2894 82.3271 96.0742 81.8141 96.8779 81.9785V81.9795C102.429 83.1427 107.196 86.3758 110.303 91.0947L125.912 114.805L126.336 115.448L126.751 114.8L141.801 91.3096C145.718 85.185 152.438 81.5304 159.77 81.5303H186.46V81.5059Z" fill="white" stroke="white"/>
<path d="M46.741 40C47.5484 40.0147 48.2205 40.7225 48.2205 41.5703V66.9004C48.2205 71.3266 53.4999 73.5864 56.7117 70.6201L56.863 70.4746L68.2527 59.1143H68.2537L68.2556 59.1113C68.8463 58.5132 69.8145 58.5174 70.4119 59.1299V59.1289C70.9774 59.7091 70.9559 60.6746 70.3484 61.2744L70.3474 61.2764L58.9968 72.5859V72.5869C55.8101 75.7737 58.0771 81.2098 62.5798 81.21H87.6082L87.6101 81.2207H87.6296C88.489 81.2207 89.1949 81.8933 89.2097 82.6992L89.2107 82.7041C89.2327 83.5347 88.5464 84.2305 87.7 84.2305H62.4099C54.5758 84.2306 48.2206 90.5522 48.2205 98.3701V121.771C48.2204 122.6 47.5301 123.285 46.6785 123.27C45.8713 123.254 45.2 122.548 45.2 121.7V98.54C45.1997 94.0438 39.7515 91.7833 36.5574 94.9658L25.1667 106.316C24.8736 106.61 24.482 106.761 24.1003 106.761C23.7186 106.761 23.3271 106.61 23.0339 106.316L23.031 106.314C22.4552 105.746 22.4732 104.745 23.073 104.145L34.4226 92.835C37.6117 89.657 35.3409 84.2207 30.8396 84.2207H11.5105C10.6666 84.2207 9.98492 83.5362 9.99976 82.6895C10.0144 81.8753 10.7188 81.2101 11.5798 81.21H30.8503C35.3632 81.2098 37.6199 75.7833 34.4333 72.5967V72.5957L23.033 61.2363L23.031 61.2344C22.432 60.6426 22.4388 59.6764 23.0466 59.0908L23.0486 59.0889C23.5889 58.5622 24.4743 58.5481 25.0896 59.0488L25.2087 59.1562L36.5574 70.4648C39.7403 73.6362 45.1997 71.3885 45.2 66.8906V41.5C45.2001 40.6711 45.8895 39.9851 46.741 40Z" fill="white" stroke="white"/>
</g>
<defs>
<clipPath id="clip0_225_21">
<rect width="251" height="251" fill="white"/>
</clipPath>
</defs>
</svg>
