<svg xmlns="http://www.w3.org/2000/svg" width="24" height="24" fill="none"><g clip-path="url(#a)"><circle cx="12" cy="12" r="12" fill="#171717"/><g clip-path="url(#b)"><path fill="url(#c)" d="m12.003 18.647-5.997-3.062 5.997-2.942z"/><path stroke="#5A9DDB" stroke-miterlimit="10" stroke-width=".05" d="M12.003 18.647 6.006 15.59l6.003-2.948v6.004z"/><path fill="url(#d)" d="M12.003 12.643 18 15.603l-5.997 3.044z"/><path stroke="url(#e)" stroke-miterlimit="10" stroke-width=".05" d="M12.003 12.643 18 15.603l-5.991 3.044v-6.004z"/><path fill="url(#f)" d="M15.548 10.916 18 15.596l-5.997-2.959z"/><path stroke="#3FAEFF" stroke-miterlimit="10" stroke-width=".05" d="M15.554 10.916 18 15.596l-5.997-2.953 3.545-1.733z"/><path fill="url(#g)" d="m8.464 10.904 3.54 1.74L6 15.579z"/><path stroke="#69A5FF" stroke-miterlimit="10" stroke-width=".05" d="m8.464 10.904 3.545 1.734-6.003 2.947z"/><path fill="url(#h)" d="M12.004 12.644V4.157L8.47 10.91l3.546 1.733z"/><path stroke="#88AABD" stroke-miterlimit="10" stroke-width=".05" d="M12.003 12.644V4.152l-3.527 6.752 3.54 1.74z"/><path fill="url(#i)" d="M12.003 12.644V4.157l3.545 6.758z"/><path stroke="#51A2ED" stroke-miterlimit="10" stroke-width=".05" d="M12.003 12.644V4.152l3.551 6.764-3.551 1.722z"/><path fill="url(#j)" d="m12.003 18.647-5.997-3.062 5.997-2.942z"/><path stroke="#5A9DDB" stroke-miterlimit="10" stroke-width=".05" d="M12.003 18.647 6.006 15.59l6.003-2.948v6.004z"/><path fill="url(#k)" d="M12.003 12.643 18 15.603l-5.997 3.044z"/><path stroke="url(#l)" stroke-miterlimit="10" stroke-width=".05" d="M12.003 12.643 18 15.603l-5.991 3.044v-6.004z"/><path fill="url(#m)" d="M15.548 10.916 18 15.596l-5.997-2.959z"/><path stroke="#3FAEFF" stroke-miterlimit="10" stroke-width=".05" d="M15.554 10.916 18 15.596l-5.997-2.953 3.545-1.733z"/><path fill="url(#n)" d="m8.464 10.904 3.54 1.74L6 15.579z"/><path stroke="#69A5FF" stroke-miterlimit="10" stroke-width=".05" d="m8.464 10.904 3.545 1.734-6.003 2.947z"/><path fill="url(#o)" d="M12.004 12.644V4.157L8.47 10.91l3.546 1.733z"/><path stroke="#88AABD" stroke-miterlimit="10" stroke-width=".05" d="M12.003 12.644V4.152l-3.527 6.752 3.54 1.74z"/><path fill="url(#p)" d="M12.003 12.644V4.157l3.545 6.758z"/><path stroke="#51A2ED" stroke-miterlimit="10" stroke-width=".05" d="M12.003 12.644V4.152l3.551 6.764-3.551 1.722z"/><path fill="url(#q)" d="m12.003 18.647-5.997-3.062 5.997-2.942z"/><path stroke="#5A9DDB" stroke-miterlimit="10" stroke-width=".05" d="M12.003 18.647 6.006 15.59l6.003-2.948v6.004z"/><path fill="url(#r)" d="M12.003 12.643 18 15.603l-5.997 3.044z"/><path stroke="url(#s)" stroke-miterlimit="10" stroke-width=".05" d="M12.003 12.643 18 15.603l-5.991 3.044v-6.004z"/><path fill="url(#t)" d="M15.548 10.916 18 15.596l-5.997-2.959z"/><path stroke="#3FAEFF" stroke-miterlimit="10" stroke-width=".05" d="M15.554 10.916 18 15.596l-5.997-2.953 3.545-1.733z"/><path fill="url(#u)" d="m8.464 10.904 3.54 1.74L6 15.579z"/><path stroke="#69A5FF" stroke-miterlimit="10" stroke-width=".05" d="m8.464 10.904 3.545 1.734-6.003 2.947z"/><path fill="url(#v)" d="M12.004 12.644V4.157L8.47 10.91l3.546 1.733z"/><path stroke="#88AABD" stroke-miterlimit="10" stroke-width=".05" d="M12.003 12.644V4.152l-3.527 6.752 3.54 1.74z"/><path fill="url(#w)" d="M12.003 12.644V4.157l3.545 6.758z"/><path stroke="#51A2ED" stroke-miterlimit="10" stroke-width=".05" d="M12.003 12.644V4.152l3.551 6.764-3.551 1.722z"/><path fill="url(#x)" d="m12.003 18.647-5.997-3.062 5.997-2.942z"/><path stroke="#5A9DDB" stroke-miterlimit="10" stroke-width=".05" d="M12.003 18.647 6.006 15.59l6.003-2.948v6.004z"/><path fill="url(#y)" d="M12.003 12.643 18 15.603l-5.997 3.044z"/><path stroke="url(#z)" stroke-miterlimit="10" stroke-width=".05" d="M12.003 12.643 18 15.603l-5.991 3.044v-6.004z"/><path fill="url(#A)" d="M15.548 10.916 18 15.596l-5.997-2.959z"/><path stroke="#3FAEFF" stroke-miterlimit="10" stroke-width=".05" d="M15.554 10.916 18 15.596l-5.997-2.953 3.545-1.733z"/><path fill="url(#B)" d="m8.464 10.904 3.54 1.74L6 15.579z"/><path stroke="#69A5FF" stroke-miterlimit="10" stroke-width=".05" d="m8.464 10.904 3.545 1.734-6.003 2.947z"/><path fill="url(#C)" d="M12.004 12.644V4.157L8.47 10.91l3.546 1.733z"/><path stroke="#88AABD" stroke-miterlimit="10" stroke-width=".05" d="M12.003 12.644V4.152l-3.527 6.752 3.54 1.74z"/><path fill="url(#D)" d="M12.003 12.644V4.157l3.545 6.758z"/><path stroke="#51A2ED" stroke-miterlimit="10" stroke-width=".05" d="M12.003 12.644V4.152l3.551 6.764-3.551 1.722z"/></g></g><defs><linearGradient id="c" x1="7.304" x2="13.435" y1="13.567" y2="16.654" gradientUnits="userSpaceOnUse"><stop stop-color="#45C7FF"/><stop offset="1" stop-color="#0E2450"/></linearGradient><linearGradient id="d" x1="11.955" x2="16.412" y1="19.245" y2="12.716" gradientUnits="userSpaceOnUse"><stop stop-color="#3B9CF7"/><stop offset=".2" stop-color="#579CED"/><stop offset=".703" stop-color="#3789D7"/><stop offset="1" stop-color="#A5C4DA"/></linearGradient><linearGradient id="e" x1="12.009" x2="18.006" y1="-48.321" y2="-48.321" gradientUnits="userSpaceOnUse"><stop stop-color="#4FB8D9"/><stop offset=".6" stop-color="#39D8FB"/><stop offset="1" stop-color="#3F5FBC"/></linearGradient><linearGradient id="f" x1="14.6" x2="19.281" y1="14.026" y2="8.863" gradientUnits="userSpaceOnUse"><stop stop-color="#33B6FF"/><stop offset="1" stop-color="#6562FD"/></linearGradient><linearGradient id="g" x1="9.032" x2="9.69" y1="13.791" y2="11.81" gradientUnits="userSpaceOnUse"><stop stop-color="#4AB0EA"/><stop offset="1" stop-color="#6D7F9B"/></linearGradient><linearGradient id="h" x1="12.813" x2="9.702" y1="8.398" y2="8.398" gradientUnits="userSpaceOnUse"><stop stop-color="#695CFB"/><stop offset="1" stop-color="#479AFD"/></linearGradient><linearGradient id="i" x1="13.011" x2="15.21" y1="9.376" y2="11.46" gradientUnits="userSpaceOnUse"><stop stop-color="#57E"/><stop offset="1" stop-color="#84A6FF"/></linearGradient><linearGradient id="j" x1="7.304" x2="13.435" y1="13.567" y2="16.654" gradientUnits="userSpaceOnUse"><stop stop-color="#45C7FF"/><stop offset="1" stop-color="#0E2450"/></linearGradient><linearGradient id="k" x1="11.955" x2="16.412" y1="19.245" y2="12.716" gradientUnits="userSpaceOnUse"><stop stop-color="#3B9CF7"/><stop offset=".2" stop-color="#579CED"/><stop offset=".703" stop-color="#3789D7"/><stop offset="1" stop-color="#A5C4DA"/></linearGradient><linearGradient id="l" x1="12.009" x2="18.006" y1="-48.321" y2="-48.321" gradientUnits="userSpaceOnUse"><stop stop-color="#4FB8D9"/><stop offset=".6" stop-color="#39D8FB"/><stop offset="1" stop-color="#3F5FBC"/></linearGradient><linearGradient id="m" x1="14.6" x2="19.281" y1="14.026" y2="8.863" gradientUnits="userSpaceOnUse"><stop stop-color="#33B6FF"/><stop offset="1" stop-color="#6562FD"/></linearGradient><linearGradient id="n" x1="9.032" x2="9.69" y1="13.791" y2="11.81" gradientUnits="userSpaceOnUse"><stop stop-color="#4AB0EA"/><stop offset="1" stop-color="#6D7F9B"/></linearGradient><linearGradient id="o" x1="12.813" x2="9.702" y1="8.398" y2="8.398" gradientUnits="userSpaceOnUse"><stop stop-color="#695CFB"/><stop offset="1" stop-color="#479AFD"/></linearGradient><linearGradient id="p" x1="13.011" x2="15.21" y1="9.376" y2="11.46" gradientUnits="userSpaceOnUse"><stop stop-color="#57E"/><stop offset="1" stop-color="#84A6FF"/></linearGradient><linearGradient id="q" x1="7.304" x2="13.435" y1="13.567" y2="16.654" gradientUnits="userSpaceOnUse"><stop stop-color="#45C7FF"/><stop offset="1" stop-color="#0E2450"/></linearGradient><linearGradient id="r" x1="11.955" x2="16.412" y1="19.245" y2="12.716" gradientUnits="userSpaceOnUse"><stop stop-color="#3B9CF7"/><stop offset=".2" stop-color="#579CED"/><stop offset=".703" stop-color="#3789D7"/><stop offset="1" stop-color="#A5C4DA"/></linearGradient><linearGradient id="s" x1="12.009" x2="18.006" y1="-48.321" y2="-48.321" gradientUnits="userSpaceOnUse"><stop stop-color="#4FB8D9"/><stop offset=".6" stop-color="#39D8FB"/><stop offset="1" stop-color="#3F5FBC"/></linearGradient><linearGradient id="t" x1="14.6" x2="19.281" y1="14.026" y2="8.863" gradientUnits="userSpaceOnUse"><stop stop-color="#33B6FF"/><stop offset="1" stop-color="#6562FD"/></linearGradient><linearGradient id="u" x1="9.032" x2="9.69" y1="13.791" y2="11.81" gradientUnits="userSpaceOnUse"><stop stop-color="#4AB0EA"/><stop offset="1" stop-color="#6D7F9B"/></linearGradient><linearGradient id="v" x1="12.813" x2="9.702" y1="8.398" y2="8.398" gradientUnits="userSpaceOnUse"><stop stop-color="#695CFB"/><stop offset="1" stop-color="#479AFD"/></linearGradient><linearGradient id="w" x1="13.011" x2="15.21" y1="9.376" y2="11.46" gradientUnits="userSpaceOnUse"><stop stop-color="#57E"/><stop offset="1" stop-color="#84A6FF"/></linearGradient><linearGradient id="x" x1="7.304" x2="13.435" y1="13.567" y2="16.654" gradientUnits="userSpaceOnUse"><stop stop-color="#45C7FF"/><stop offset="1" stop-color="#0E2450"/></linearGradient><linearGradient id="y" x1="11.955" x2="16.412" y1="19.245" y2="12.716" gradientUnits="userSpaceOnUse"><stop stop-color="#3B9CF7"/><stop offset=".2" stop-color="#579CED"/><stop offset=".703" stop-color="#3789D7"/><stop offset="1" stop-color="#A5C4DA"/></linearGradient><linearGradient id="z" x1="12.009" x2="18.006" y1="-48.321" y2="-48.321" gradientUnits="userSpaceOnUse"><stop stop-color="#4FB8D9"/><stop offset=".6" stop-color="#39D8FB"/><stop offset="1" stop-color="#3F5FBC"/></linearGradient><linearGradient id="A" x1="14.6" x2="19.281" y1="14.026" y2="8.863" gradientUnits="userSpaceOnUse"><stop stop-color="#33B6FF"/><stop offset="1" stop-color="#6562FD"/></linearGradient><linearGradient id="B" x1="9.032" x2="9.69" y1="13.791" y2="11.81" gradientUnits="userSpaceOnUse"><stop stop-color="#4AB0EA"/><stop offset="1" stop-color="#6D7F9B"/></linearGradient><linearGradient id="C" x1="12.813" x2="9.702" y1="8.398" y2="8.398" gradientUnits="userSpaceOnUse"><stop stop-color="#695CFB"/><stop offset="1" stop-color="#479AFD"/></linearGradient><linearGradient id="D" x1="13.011" x2="15.21" y1="9.376" y2="11.46" gradientUnits="userSpaceOnUse"><stop stop-color="#57E"/><stop offset="1" stop-color="#84A6FF"/></linearGradient><clipPath id="a"><path fill="#fff" d="M0 0h24v24H0z"/></clipPath><clipPath id="b"><path fill="#fff" d="M5.4 3.6h13.2v15.6H5.4z"/></clipPath></defs></svg>