<svg width="155" height="155" viewBox="0 0 155 155" fill="none" xmlns="http://www.w3.org/2000/svg">
<g clip-path="url(#clip0_37_2)">
<rect width="155" height="155" rx="77.5" fill="#679C46"/>
<path d="M25.1716 196.698L70.4405 140.477L80.6626 128.466C95.674 134.271 113.475 134.306 127.392 122.953C167.096 90.5631 138.344 28.0346 99.6462 13.4317C68.688 1.74934 31.1257 20.5923 20.7907 34.6059C-13.6721 81.3351 -0.383687 171.143 25.1716 196.698Z" fill="white"/>
<path d="M80.6626 83.5256C80.6626 103.386 99.6463 107.62 105.487 99.5888C118.315 77.9422 112.069 65.9791 101.49 59.7123M80.6626 128.466C95.674 134.271 113.475 134.306 127.392 122.953C167.096 90.5631 138.344 28.0346 99.6462 13.4317C68.688 1.74934 31.1257 20.5923 20.7907 34.6059C-13.6721 81.3351 -0.383687 171.143 25.1716 196.698L70.4405 140.477L80.6626 128.466ZM80.6626 128.466C65.7452 122.699 53.583 111.234 50.7265 99.5888C47.5626 86.6896 47.952 59.4309 74.8213 53.5897C77.5887 53.4466 81.3477 53.6121 85.427 54.2679M85.427 54.2679L87.6174 35.5551M85.427 54.2679C90.7316 55.1206 96.578 56.8024 101.49 59.7123M101.49 59.7123L105.487 40.6662" stroke="#679C46" stroke-width="11.7159" stroke-linecap="round" stroke-linejoin="round"/>
</g>
<defs>
<clipPath id="clip0_37_2">
<rect width="155" height="155" rx="77.5" fill="white"/>
</clipPath>
</defs>
</svg>
