<svg width="63" height="63" viewBox="0 0 63 63" fill="none" xmlns="http://www.w3.org/2000/svg">
<g clip-path="url(#clip0_145_338)">
<rect width="63" height="63" rx="31.5" fill="white"/>
<path d="M-10.4844 -0.00250244H73.4098C73.5358 0.215863 73.5232 0.778573 73.4644 1.03053C73.4602 1.05573 73.4434 1.08512 73.435 1.11032C73.5232 1.36648 73.5358 3.16799 73.4434 3.41155C73.4434 3.41995 73.435 3.43255 73.4308 3.44095C73.5148 3.65091 73.5358 5.98574 73.4476 6.19151C73.4434 6.2083 73.435 6.2209 73.4266 6.2377C73.5274 6.46026 73.5442 7.38412 73.4476 7.61508C73.4392 7.63188 73.4308 7.64867 73.4224 7.66547C73.519 7.88804 73.5358 9.02185 73.4476 9.25702C73.4392 9.27381 73.4308 9.29481 73.4266 9.31161C73.5148 9.52157 73.5316 10.1683 73.4518 10.3824C73.4434 10.4076 73.4224 10.437 73.4098 10.4622C73.5358 10.6848 73.5358 12.1672 73.4602 12.4317C73.4518 12.4569 73.4392 12.4821 73.4308 12.5073C73.519 12.7257 73.5442 13.8427 73.4476 14.0568C73.4392 14.0736 73.4308 14.0904 73.4224 14.1072C73.5316 14.3382 73.54 15.493 73.4602 15.7618C73.4476 15.7996 73.4266 15.8374 73.4098 15.8752C73.54 16.1103 73.5358 16.9754 73.4602 17.2399C73.4476 17.2777 73.4266 17.3155 73.4098 17.3533C73.4434 17.4163 73.4686 17.4625 73.4728 17.5339C73.5064 17.8866 73.5358 20.0493 73.456 20.3096C73.4476 20.339 73.435 20.36 73.4224 20.3852C73.456 20.4608 73.4728 20.5238 73.477 20.6078C73.5106 21.3091 73.5358 27.0286 73.4392 27.2931C73.4392 27.3015 73.4308 27.3099 73.4308 27.3183C73.5316 27.5703 73.5442 29.0401 73.4308 29.3046C73.4308 29.313 73.4224 29.3214 73.4182 29.3298C73.5274 29.5566 73.54 30.5056 73.4434 30.7534C73.435 30.7702 73.4266 30.7912 73.4182 30.808C73.5148 31.0221 73.5316 32.3617 73.4434 32.5969C73.435 32.6137 73.4266 32.6347 73.4182 32.6515L73.4056 32.8111C73.4938 32.9832 73.5064 33.2604 73.4518 33.4451C73.4392 33.4829 73.4224 33.5123 73.4014 33.5501C73.5316 33.7853 73.5274 34.6923 73.4518 34.9569C73.4392 34.9947 73.4182 35.0325 73.4014 35.0703C73.5106 35.2677 73.5232 36.5988 73.4476 36.8214C73.435 36.855 73.4182 36.8802 73.4014 36.9096C73.5232 37.1364 73.5316 37.9636 73.4476 38.2156C73.4392 38.245 73.4182 38.2786 73.4014 38.3038C73.519 38.5263 73.5232 39.8911 73.4476 40.1431C73.435 40.1809 73.4224 40.1977 73.4056 40.2355C73.5232 40.4622 73.5232 41.764 73.4434 42.016C73.435 42.0412 73.4266 42.058 73.414 42.079C73.5064 42.2973 73.5316 43.7083 73.4392 43.9519C73.4224 43.9981 73.4182 44.0023 73.3972 44.0443C73.519 44.2794 73.5148 45.4132 73.4308 45.6694C73.4224 45.703 73.4182 45.703 73.4056 45.7282C73.5022 45.9297 73.5232 47.6221 73.435 47.874C73.4266 47.9034 73.4182 47.9118 73.4056 47.9412C73.5106 48.168 73.519 49.264 73.4434 49.5328C73.435 49.558 73.4182 49.5958 73.4056 49.621C73.4896 49.8141 73.5148 50.3306 73.4266 50.5322C73.4224 50.5448 73.414 50.5574 73.4098 50.57C73.5064 50.801 73.5148 51.5569 73.4392 51.792C73.4308 51.8214 73.4098 51.855 73.393 51.8844C73.5148 52.0944 73.5106 53.4004 73.4434 53.6523C73.435 53.6775 73.4224 53.7069 73.414 53.7321C73.5148 53.9715 73.5232 54.7819 73.4434 55.0381C73.435 55.0675 73.414 55.1053 73.3972 55.1305C73.5064 55.332 73.5106 56.4995 73.4434 56.7262C73.435 56.7556 73.4224 56.7766 73.4098 56.806C73.5064 57.0244 73.5232 58.1666 73.435 58.3976C73.4266 58.4144 73.4182 58.4353 73.414 58.4521C73.519 58.6831 73.5274 60.0563 73.4392 60.3082C73.4308 60.3418 73.4266 60.3418 73.414 60.367C73.5022 60.5812 73.5232 61.6184 73.435 61.8368C73.4266 61.8536 73.4182 61.8704 73.4098 61.8914C73.5064 62.1014 73.5232 62.6935 73.4392 62.9202C73.4308 62.9496 73.414 62.9706 73.3972 63H-10.4844V-0.00250244Z" fill="#344D27"/>
<path d="M21.5103 -0.00250244H23.2698C23.3202 0.0898828 23.3496 0.157072 23.3622 0.262055C23.2488 0.673589 22.854 1.01793 22.5643 1.31189C22.2031 0.883556 21.8714 0.430028 21.5103 -0.00250244Z" fill="#A5CD89"/>
<path d="M38.7903 60.5854C38.0428 61.3329 37.4171 62.0845 36.867 62.9874H35.834C35.9348 62.8614 36.0398 62.7396 36.1447 62.6221C36.2497 62.5045 36.3631 62.3869 36.4765 62.2735C36.5899 62.1601 36.7032 62.0509 36.825 61.9418C36.9426 61.8368 37.0644 61.7318 37.1904 61.631C37.3163 61.5302 37.4423 61.4336 37.5683 61.3371C37.6985 61.2447 37.8287 61.1523 37.963 61.0641C38.0974 60.9759 38.2318 60.8919 38.3704 60.8121C38.509 60.7324 38.6475 60.6568 38.7903 60.5812V60.5854Z" fill="#A5CD89"/>
<path d="M36.4385 13.1582C36.4721 13.3093 35.7247 15.3418 35.6197 15.6862C35.2333 15.4804 34.8554 15.2536 34.4733 15.0353C34.2423 14.9135 34.0197 14.7623 33.793 14.6237C34.6874 14.1576 35.5693 13.6705 36.4385 13.1582Z" fill="#A5CD89"/>
<path d="M48.155 -0.00250244H50.8215C50.3428 0.257856 49.7633 0.42163 49.251 0.602201C47.9408 1.06833 46.6432 1.50926 45.48 2.29033C46.1309 1.2489 47.1303 0.623197 48.155 -0.00250244Z" fill="#A5CD89"/>
<path d="M17.4365 -0.00250244H19.2632C20.0989 0.753377 20.7834 1.58484 21.3587 2.55489C20.9556 2.83624 20.5524 3.1176 20.1451 3.38636C19.4606 2.14335 18.4654 0.967542 17.4365 -0.00250244Z" fill="#A5CD89"/>
<path d="M43.5442 45.8668C44.1447 45.9591 44.7326 46.1355 45.3415 46.1901C45.0979 47.7901 44.5058 49.1254 43.4728 50.3684C43.162 50.7044 42.8135 50.9983 42.4565 51.2839C43.162 49.3144 43.4476 47.9538 43.5442 45.8668Z" fill="#A5CD89"/>
<path d="M8.58447 58.5109C9.38235 58.9015 10.2348 59.1198 11.0243 59.544L11.0747 59.5524C11.6668 59.6279 12.2631 59.5524 12.8594 59.6573C15.106 60.0311 17.6172 61.4337 19.2634 62.9916H17.4367C16.1937 61.8704 14.5811 60.9549 13.0232 60.3586C12.2967 60.0773 11.5408 59.8673 10.8185 59.565C10.6421 59.4978 10.3902 59.4894 10.2012 59.4558C9.40754 59.313 9.17658 59.0316 8.58447 58.5109Z" fill="#A5CD89"/>
<path d="M40.3818 44.6364C40.7933 44.7791 41.1923 44.9765 41.5744 45.1823C41.7886 46.8116 41.6878 48.5459 41.0495 50.0745C40.7891 50.696 40.1046 51.9684 39.6259 52.4135C39.5293 52.5059 39.3992 52.5521 39.2774 52.6025C38.954 52.7579 38.6013 52.867 38.2695 52.993C39.9493 50.0829 40.5456 47.9958 40.386 44.6364H40.3818Z" fill="#A5CD89"/>
<path d="M11.1463 -0.00250244H15.0895C16.8406 1.28249 17.5251 2.59268 18.9402 4.13384C18.5287 4.29341 18.1256 4.49498 17.7182 4.67975C17.3991 4.42779 17.0337 4.17583 16.7776 3.85248C16.5382 3.55433 16.3703 3.21838 16.1099 2.92863C14.7073 1.34548 13.0948 0.648393 11.1421 -0.00250244H11.1463Z" fill="#A5CD89"/>
<path d="M48.1756 62.9874C49.8427 61.9922 51.8332 61.4127 53.2022 59.9723C53.5759 59.5775 53.8993 59.1156 54.2184 58.6747C54.4284 58.3891 54.9155 57.7634 54.9785 57.4317C54.9785 57.4191 54.9785 57.4065 54.9785 57.3981C55.1045 57.5283 55.327 57.8348 55.3186 58.0238C55.3186 58.0322 55.3186 58.0448 55.3144 58.0532C55.3648 58.3639 55.1129 58.7755 55.0625 59.0904C55.0163 59.376 55.0625 59.6951 54.9743 59.9723C54.9113 60.1655 54.8063 60.3502 54.6887 60.5182C53.7565 61.8158 52.2657 62.3575 50.8842 62.9916H48.1714L48.1756 62.9874Z" fill="#A5CD89"/>
<path d="M32.4242 -0.00250244H34.0283C33.4992 0.837363 33.0667 1.72342 32.5628 2.57589C31.0342 5.16267 29.4007 6.14531 26.6123 7.12376C27.2716 6.50646 28.0275 5.98994 28.691 5.36424C29.5938 4.51178 30.4295 3.53753 31.0678 2.4667C31.5465 1.66043 31.9539 0.807968 32.4284 -0.00250244L32.4242 -0.00250244Z" fill="#A5CD89"/>
<path d="M31.723 15.1991C31.7901 15.1991 31.8363 15.1991 31.8951 15.2327C32.3865 15.472 32.8526 15.7996 33.3355 16.0641C35.2336 17.114 36.9973 18.1092 37.9422 20.1669C38.2697 20.8808 38.3999 21.666 38.6603 22.4051C38.4125 22.8082 38.1563 23.2072 37.9464 23.6355L37.6944 24.1562C37.0015 21.6072 36.6068 19.4488 34.3895 17.7397C33.6756 17.1895 32.8736 16.757 32.1765 16.1901C31.9539 16.0095 31.4542 15.64 31.4248 15.3502C31.513 15.3376 31.6432 15.2453 31.723 15.2033V15.1991Z" fill="#A5CD89"/>
<path d="M6.64044 45.0941C6.8882 45.3376 7.07297 45.7576 7.25354 46.0599C7.67347 46.7528 8.19839 47.4247 8.82409 47.9412C10.9951 49.7385 12.8848 48.6551 14.552 51.9348C14.3882 52.2455 14.2538 52.5773 14.1152 52.9006C14.0984 52.9132 14.0732 52.9006 14.0523 52.9006C13.141 51.561 11.8854 50.9311 10.445 50.297C9.77734 50.0031 9.12224 49.6923 8.58473 49.1884C7.54329 48.21 7.03098 46.9124 6.2793 45.7324L6.63204 45.0899L6.64044 45.0941Z" fill="#A5CD89"/>
<path d="M25.7432 19.1422C25.8524 19.2598 25.8775 19.8015 25.9279 19.9821C26.0665 20.465 26.2723 20.9437 26.5116 21.3847C26.9736 22.2329 27.6455 22.8712 28.3216 23.5431C28.7079 23.9294 29.0816 24.32 29.363 24.7903C29.8123 25.5378 30.0307 26.4406 30.354 27.2511C30.4674 27.5367 30.6438 27.797 30.7488 28.0784C30.7866 28.175 30.7992 28.2632 30.7992 28.3639C30.7278 28.4899 30.6396 28.4899 30.5094 28.5361L30.438 28.5697C30.1861 28.4521 29.405 27.3309 29.1656 27.0411C28.3761 26.0921 27.5027 25.2102 26.73 24.2486C26.4949 23.9546 26.2723 23.6481 26.0917 23.3121C25.382 21.9936 25.319 20.5574 25.7474 19.1422H25.7432Z" fill="#A5CD89"/>
<path d="M7.52647 42.1839C7.69024 42.3561 7.82462 42.6123 7.9548 42.8138C8.25715 43.28 8.5553 43.7503 8.91645 44.1744C9.73952 45.1361 10.9447 45.8752 12.1373 46.2867C12.8218 46.5261 13.5231 46.6982 14.1866 46.9964C15.1986 47.4499 15.8453 48.2688 16.2275 49.2934C16.0637 49.495 15.9293 49.7007 15.7991 49.9233L15.5934 50.2719C14.447 48.4787 13.225 48.0462 11.3563 47.3365C10.6928 47.0846 10.0629 46.799 9.54215 46.3035C8.5721 45.3796 7.9674 44.0736 7.3291 42.9188C7.37949 42.6669 7.44668 42.4233 7.52647 42.1797V42.1839Z" fill="#A5CD89"/>
<path d="M-1.7627 53.2702C-1.34696 53.0308 -0.931228 52.7956 -0.540691 52.5143C-0.376917 53.7027 -0.162751 54.9835 0.311773 56.0963C0.572131 56.7052 0.983665 57.2553 1.35741 57.797C2.60041 59.6028 4.04917 61.6058 5.7583 62.9874H3.37308C2.34845 61.4169 1.64296 59.6951 0.714909 58.0784C0.0598136 56.9362 -0.750657 55.9199 -1.58212 54.9037C-1.62412 54.3578 -1.68711 53.8119 -1.7627 53.2702Z" fill="#A5CD89"/>
<path d="M5.43097 47.3155C5.96848 48.2898 6.38002 49.285 7.1233 50.1417C8.67285 51.9264 11.0539 51.7584 12.5824 53.5725C12.889 53.9379 13.8968 55.2522 13.8632 55.6764C13.754 55.6806 13.6994 55.6218 13.6071 55.5588C12.7714 55.0759 11.9945 54.5006 11.1253 54.0638C10.4954 53.7447 9.83606 53.4759 9.20617 53.161C6.53539 51.8214 6.05247 50.4986 4.96484 47.895C5.13702 47.7187 5.27979 47.5129 5.43097 47.3155Z" fill="#A5CD89"/>
<path d="M54.29 -0.00250244H56.5366C56.5366 0.0184942 56.5366 0.0352915 56.5283 0.0562882C56.4989 0.165471 56.3015 0.350241 56.2259 0.434228C54.8947 1.8326 52.7531 2.5087 50.9935 3.16799C50.5316 3.34436 50.0781 3.56693 49.6036 3.7139C48.5327 4.04985 47.4157 4.23042 46.3449 4.57057C45.673 4.78473 45.0221 5.09128 44.3628 5.35164C44.8877 4.49078 45.6562 4.22202 46.4919 3.76849C46.9748 3.50814 47.3863 3.17639 47.8944 2.94543C48.7007 2.58008 49.5742 2.31133 50.4014 1.99638C50.9431 1.78641 51.4723 1.55965 51.9972 1.31189C52.5221 1.06413 53.0386 0.799569 53.5425 0.514015C53.7357 0.404832 54.185 0.186467 54.2816 -0.00250244L54.29 -0.00250244Z" fill="#A5CD89"/>
<path d="M29.7616 15.787C29.9002 15.8709 30.0808 16.3413 30.19 16.5008C30.3621 16.7612 30.5637 17.0174 30.7863 17.2399C31.5086 17.9622 32.508 18.3863 33.2891 19.0414C35.1158 20.57 35.7835 23.0392 35.9892 25.3194C35.7667 25.4748 35.5273 25.6134 35.2964 25.7562L34.5951 26.1383C34.4691 25.4034 34.4523 24.6559 34.3431 23.9211C34.087 22.1237 33.1463 20.7464 31.8613 19.5244C31.3574 19.0456 30.7695 18.6551 30.2866 18.1512C29.6777 17.5213 29.3417 16.862 29.3585 15.9843L29.7616 15.787Z" fill="#A5CD89"/>
<path d="M27.242 17.2357C27.4435 17.3491 27.8383 17.9706 28.0272 18.1848C28.2372 18.4241 28.464 18.6593 28.7075 18.8651C30.7232 20.5826 32.1678 21.498 32.4323 24.404C32.5247 25.4118 32.6087 26.3231 32.9446 27.2889L32.5919 27.4695L32.2014 27.6585C31.8444 26.89 31.6093 26.0543 31.3825 25.2396C31.1599 24.4502 30.9794 23.5767 30.5216 22.8838C29.5768 21.456 27.8131 20.8303 27.1832 19.1338C26.9438 18.4913 26.9606 17.8614 27.2504 17.2399L27.242 17.2357Z" fill="#A5CD89"/>
<path d="M54.0674 54.7567C54.2186 54.9919 54.2354 55.3614 54.269 55.6386C54.2186 55.9367 54.0212 56.2433 53.8784 56.5036C53.1267 57.8726 52.1399 58.7839 50.8717 59.6783C49.7211 60.4846 48.4487 60.9801 47.2309 61.6604C46.5422 62.0426 45.9291 62.4877 45.3286 62.9916H42.6284C43.8714 61.694 45.8787 60.5182 47.55 59.8799C48.1925 59.6321 48.9316 59.502 49.5363 59.1702C51.0565 58.3387 52.7278 56.8144 53.7272 55.395C53.8448 55.227 54.0716 54.9583 54.0716 54.7567H54.0674Z" fill="#A5CD89"/>
<path d="M7.75732 37.804C8.05548 38.1232 8.27384 38.5767 8.49221 38.9547C9.1389 40.0759 9.7814 41.1761 10.806 41.995C11.7887 42.7802 13.0233 43.301 14.2117 43.6915C15.2069 44.019 16.2904 44.2584 17.1386 44.9051C17.6257 45.2746 17.9491 45.7282 18.264 46.2363C18.0793 46.505 17.9113 46.7864 17.7391 47.0636C17.6467 47.2441 17.525 47.4121 17.42 47.5843C16.2232 45.7072 14.6736 45.4678 12.8007 44.6783C11.8601 44.2836 11.0202 43.7839 10.2769 43.0784C8.94573 41.8186 7.81192 39.6559 7.75732 37.7998V37.804Z" fill="#A5CD89"/>
<path d="M59.5518 41.89C59.6526 41.9908 59.5015 42.5703 59.4721 42.7298C59.2789 43.8469 59.0731 44.9261 58.712 46.0053C58.3844 46.988 57.9561 47.9328 57.5992 48.9029C57.0784 50.3306 56.6753 52.1741 56.8307 53.6943C56.8979 54.3452 57.07 54.9583 57.2884 55.5756C57.3976 55.8821 57.9393 56.6296 57.9687 56.8228C57.9687 56.8354 57.9687 56.8522 57.9729 56.8648C57.9687 57.0999 57.3052 58.0238 57.1204 58.2128C57.0532 58.1036 56.9651 58.0448 56.8643 57.9692C56.8139 57.7508 56.4695 57.4275 56.3352 57.2259C55.8354 56.4659 55.6003 55.605 55.5079 54.7105C55.4029 53.6775 55.3189 52.5815 55.5247 51.561C55.7305 50.5322 56.1462 49.5832 56.5577 48.6215C57.1834 47.1517 57.8175 45.6526 58.0149 44.0526C58.0485 43.7881 58.1031 43.4395 58.0233 43.1834C58.4642 42.9608 59.2495 42.2847 59.5476 41.8942L59.5518 41.89Z" fill="#A5CD89"/>
<path d="M54.2857 23.6775L54.3864 23.6943L54.4032 23.7279C53.45 25.0591 52.6731 26.4113 52.081 27.9398C51.6779 28.977 51.3545 30.0437 50.9472 31.0767C50.0653 33.3149 48.4528 35.549 46.1894 36.5358H46.1768C46.1768 36.5316 46.1768 36.4812 46.1768 36.4812C48.3898 33.9784 48.1882 32.2231 49.3053 29.3802C49.9184 27.8264 50.9304 26.4197 52.1314 25.269C52.5303 24.8869 52.9671 24.4964 53.429 24.1982C53.6894 24.0302 54.0043 23.9085 54.2437 23.7195L54.2899 23.6817L54.2857 23.6775Z" fill="#A5CD89"/>
<path d="M3.37305 -0.00250244H5.75827C7.29942 1.17751 9.07154 1.70662 10.8563 2.39531C11.1712 2.51709 12.6368 3.0924 12.7501 3.34436L12.6494 3.45354C12.7669 3.65931 14.2745 4.28921 14.6188 4.49078C15.1606 4.80153 15.6477 5.17527 16.1138 5.5868C15.7317 5.88076 15.3327 6.14951 14.9422 6.42247C14.4215 5.95215 13.8252 5.5868 13.2079 5.26346C12.0447 4.65455 10.8605 4.327 9.59645 4.00786C6.72411 3.28557 5.08637 2.5129 3.37305 0.00589622V-0.00250244Z" fill="#A5CD89"/>
<path d="M-0.51123 -0.00250244H1.12231C1.68502 1.41267 2.57528 2.89083 3.76788 3.86508C4.9521 4.83092 6.783 5.50702 8.26537 5.83456C10.1803 6.2587 11.8138 6.50226 13.4221 7.71166C12.8342 8.25338 12.2967 8.80349 11.8432 9.46698C10.2852 7.58568 6.37567 6.72062 4.15002 5.64139C1.7858 4.49918 0.341233 2.44151 -0.51123 -0.00250244Z" fill="#A5CD89"/>
<path d="M1.27783 51.3847L1.70616 51.1201C2.41165 53.3668 3.76383 55.5588 5.10762 57.4779C5.55695 58.1204 6.01047 58.8007 6.59418 59.334C6.84194 59.5608 7.1149 59.7329 7.40885 59.8883C8.28231 60.3502 9.24396 60.5728 10.193 60.8374C11.9357 61.3245 13.6071 61.9166 15.081 62.9874H11.0581C9.79827 62.5801 8.56787 62.2777 7.37106 61.6898C6.92593 61.4715 6.52699 61.1565 6.14065 60.85C4.74228 59.7455 3.74704 58.4857 2.93237 56.8942C2.01691 55.1053 1.67677 53.329 1.27783 51.3805V51.3847Z" fill="#A5CD89"/>
<path d="M24.3195 -0.00250244H25.911C25.0418 2.02577 23.467 3.45774 21.7285 4.74274C21.2666 5.08288 20.8046 5.46502 20.2965 5.73378C19.8346 5.98154 19.3433 6.17471 18.8688 6.40147C18.0205 6.80041 17.168 7.26233 16.4037 7.80405C16.2904 7.88384 16.1812 7.96782 16.072 8.05181C15.9628 8.1358 15.8536 8.22398 15.7487 8.31217C15.6437 8.40035 15.5387 8.49274 15.4379 8.58512C15.3371 8.67751 15.2363 8.77409 15.1397 8.87068C15.0432 8.96726 14.9466 9.06805 14.85 9.16883C14.7576 9.26961 14.6652 9.3746 14.5728 9.47958C14.4847 9.58456 14.3965 9.69375 14.3125 9.80293C14.2285 9.91211 14.1445 10.0213 14.0647 10.1347C13.9849 10.2481 13.9051 10.3614 13.8296 10.479C13.754 10.5966 13.6784 10.71 13.607 10.8318C13.5356 10.9493 13.4684 11.0711 13.4012 11.1929C13.334 11.3147 13.271 11.4365 13.2081 11.5624C13.1451 11.6884 13.0863 11.8102 13.0317 11.9404C12.9771 12.0664 12.9225 12.1965 12.8721 12.3225C12.8217 12.4485 12.7713 12.5829 12.7293 12.7131C12.6831 12.8432 12.6411 12.9734 12.5992 13.1078C12.4186 13.7125 12.322 14.3424 12.217 14.9639C12.049 14.8673 11.8895 14.7623 11.7299 14.6532C11.5745 14.5398 11.4233 14.4222 11.2764 14.2962C11.2764 13.5361 11.4527 12.7509 11.6585 12.0202C12.2632 9.89111 13.1703 8.7195 14.9172 7.40091C15.6017 6.8844 16.324 6.40147 17.0714 5.98574C17.6425 5.67079 18.2221 5.36844 18.81 5.08288C19.1333 4.92751 19.5154 4.78473 19.8136 4.59156C20.0614 4.42779 20.2335 4.16323 20.4645 3.98266C20.8382 3.69291 21.2456 3.44095 21.6235 3.15119C22.6901 2.32812 23.7316 1.2321 24.3153 0.00169689L24.3195 -0.00250244Z" fill="#A5CD89"/>
<path d="M62.4576 52.4177C62.5164 52.2665 62.4576 52.086 62.445 51.9264C62.3904 51.2251 62.4366 50.549 62.5626 49.8561C62.8271 48.4031 63.3436 46.9922 63.8392 45.6064C64.3053 44.2878 64.7504 42.9608 65.4433 41.7388C65.8086 41.0963 66.2832 40.5378 66.7619 39.9793C68.0763 38.4423 69.5754 37.7788 71.4819 37.2833C72.1202 37.1154 72.7543 36.9558 73.4136 36.9012C73.5354 37.1279 73.5438 37.9552 73.4598 38.2072C73.4514 38.2366 73.4304 38.2702 73.4136 38.2954C72.074 38.3584 70.1633 39.0848 69.0925 39.8827C68.786 40.1137 68.5508 40.458 68.2736 40.7226C67.7739 41.2013 67.27 41.6548 66.8501 42.2091C65.5441 43.9225 64.8218 46.4757 64.6664 48.6047C64.637 49.0162 64.6286 49.4278 64.658 49.8435C64.6832 50.1795 64.8092 50.5994 64.7588 50.9311C64.7588 50.9395 64.7588 50.9479 64.7546 50.9563C64.595 51.1705 62.8145 52.2707 62.4618 52.4177H62.4576Z" fill="#A5CD89"/>
<path d="M54.353 62.9874C56.3393 61.6058 57.3052 59.3046 58.6405 57.3771C60.6016 54.5426 65.0613 51.4141 68.2276 50.0535C68.4208 49.9695 68.6223 49.8813 68.8323 49.8645C69.1515 49.8435 69.521 49.9485 69.8443 49.9863C70.9446 50.1165 72.4143 50.1543 73.4306 50.5574C73.5272 50.7884 73.5356 51.5442 73.46 51.7794C73.4516 51.8088 73.4306 51.8424 73.4138 51.8718C72.2716 51.5736 71.0916 51.5526 69.9241 51.4141C69.5084 51.3637 69.1011 51.2335 68.6937 51.1873C68.6811 51.1957 68.6685 51.2041 68.6559 51.2125C68.5048 51.3133 68.299 51.3721 68.131 51.4561C67.6355 51.7038 67.1484 51.9684 66.6655 52.2413C63.7175 53.963 60.9418 56.0333 59.0437 58.9183C58.3382 59.9933 57.4605 62.1643 56.5703 62.9832H54.3572L54.353 62.9874Z" fill="#A5CD89"/>
<path d="M63.8055 19.2514H63.9315C64.1331 19.4404 64.9058 20.3642 64.9562 20.591C64.5278 20.8429 63.9231 20.9689 63.457 21.1537C62.2308 21.6366 61.1222 22.3127 60.1059 23.1484C60.0135 23.224 59.9212 23.3038 59.8288 23.3835C59.7364 23.4633 59.6482 23.5431 59.5558 23.6271C59.4676 23.7111 59.3794 23.7951 59.2913 23.8791C59.2031 23.9631 59.1191 24.0512 59.0351 24.1394C58.9511 24.2276 58.8671 24.3158 58.7831 24.404C58.6992 24.4922 58.6194 24.5846 58.5396 24.6769C58.4598 24.7693 58.38 24.8617 58.3044 24.9583C58.2288 25.0507 58.1532 25.1473 58.0777 25.2438C58.0021 25.3404 57.9307 25.437 57.8593 25.5336C57.7879 25.6302 57.7165 25.731 57.6493 25.8318C57.5821 25.9325 57.5149 26.0333 57.4478 26.1341C57.3806 26.2349 57.3176 26.3399 57.2546 26.4449C57.1916 26.5498 57.1286 26.6548 57.0698 26.7598C57.011 26.8648 56.9522 26.974 56.8934 27.079C56.8347 27.1881 56.7801 27.2931 56.7255 27.4023C56.6709 27.5115 56.6205 27.6207 56.5659 27.7298C56.1334 28.6621 55.831 29.6405 55.4321 30.5812C54.4326 32.9328 52.8327 34.5832 50.6155 35.8178C50.3341 35.9689 50.0527 36.1117 49.7588 36.2419C50.7372 35.255 51.6653 34.2598 52.3414 33.0336C52.5597 32.6347 52.7361 32.2021 52.9209 31.7864C54.1681 28.9435 54.4704 26.7682 56.7423 24.404C57.4688 23.6481 58.338 22.9972 59.2031 22.4093C60.5931 21.4686 62.109 20.8094 63.3898 19.6881C63.5284 19.5706 63.73 19.4194 63.8055 19.2556V19.2514Z" fill="#A5CD89"/>
<path d="M-4.3999 -0.00250244H-2.79996C-2.56899 1.40847 -1.72913 3.0966 -0.838872 4.20942C0.441923 5.80517 1.41197 6.55685 3.23028 7.4681C4.28011 7.99302 5.34254 8.41715 6.44696 8.79929C8.24428 9.42499 9.53767 9.82393 10.9696 11.1257C10.8269 11.617 10.6883 12.1126 10.5539 12.6081C8.57182 10.794 7.02227 10.6932 4.62026 9.84492C4.29691 9.73154 3.98196 9.60976 3.66701 9.47958C3.35206 9.3494 3.04131 9.21082 2.73056 9.06385C2.42401 8.91687 2.11746 8.7615 1.8193 8.60192C1.52115 8.44235 1.223 8.27017 0.933245 8.0896C-1.19581 6.79201 -2.91754 4.59576 -3.7826 2.26513C-4.05556 1.53445 -4.21513 0.757576 -4.3957 0.00169689L-4.3999 -0.00250244Z" fill="#A5CD89"/>
<path d="M28.4602 -0.00251454H30.2827C28.5861 3.07559 27.5741 4.60835 24.6388 6.62822C24.1474 6.96837 23.6519 7.35891 23.1312 7.65286C21.9428 8.32475 20.6872 8.80348 19.5576 9.59715C17.8443 10.8024 16.1603 12.4653 15.4212 14.4684C15.1105 15.3082 14.9593 16.1859 14.8039 17.0636C14.3966 16.8116 14.0271 16.5092 13.6533 16.2153C13.7625 15.472 13.8297 14.7455 14.0229 14.0148C14.7871 11.1131 16.8364 9.58455 19.419 8.30796C20.2379 7.90482 21.1281 7.58567 21.9176 7.13634C22.2409 6.95577 22.4845 6.62822 22.7869 6.40986C25.2561 4.62934 27.1122 2.76064 28.4518 -0.00671387L28.4602 -0.00251454Z" fill="#A5CD89"/>
<path d="M2.86914 50.1333L3.66281 49.3606C3.89378 49.9611 4.11634 50.5658 4.41869 51.1369C5.38454 52.9552 7.03487 54.1226 8.87838 54.9415C9.94921 55.4202 11.0662 55.7814 12.1665 56.1845C15.5007 57.4107 21.6275 59.5818 23.2653 62.9874H21.51C20.4811 61.9334 19.4145 60.9465 18.1379 60.2033C17.1049 59.5986 15.9962 59.1912 14.8834 58.7671C13.905 58.3933 12.9181 58.0364 11.9271 57.6963C9.70985 56.953 7.15666 56.3273 5.43073 54.6559C4.13314 53.4003 3.44025 51.8172 2.86914 50.1333Z" fill="#A5CD89"/>
<path d="M47.4578 46.442C47.8862 46.4504 48.3145 46.4672 48.7428 46.4672C48.3019 48.7979 47.3276 50.8765 45.3246 52.2455C44.0186 53.14 42.6118 53.7111 41.1546 54.3032C40.1132 54.7273 39.0298 55.0759 38.0051 55.5294C37.1863 55.8905 36.4262 56.3273 35.6703 56.8102C33.1129 58.4521 31.7523 60.3838 30.2784 62.9916H28.4727C29.3587 61.2027 30.2658 59.3886 31.7019 57.9692C32.7308 56.9488 33.9822 56.0963 35.2714 55.4412C36.6991 54.7189 38.2487 54.1394 39.7395 53.5473C41.9231 52.678 44.5939 51.75 46.1014 49.8351C46.8951 48.8315 47.2353 47.685 47.4536 46.4462L47.4578 46.442Z" fill="#A5CD89"/>
<path d="M36.3842 29.6111C36.4598 29.7497 36.1911 30.9633 36.1449 31.2069C35.536 31.5764 34.8851 31.883 34.272 32.2483C33.0794 32.958 31.9036 33.8651 30.9209 34.8477C29.9467 35.822 29.0018 36.9558 28.3761 38.1904C27.6748 39.5803 27.2927 41.0627 26.7678 42.5199C26.0161 44.5985 24.412 46.2405 22.5643 47.4079L22.5391 47.3827C22.5517 47.2777 23.2362 46.3371 23.3495 46.1439C23.6267 45.6778 23.8618 45.1949 24.055 44.6909C24.6639 43.091 24.7143 41.3399 25.2308 39.7063C26.7636 34.8519 32.1387 31.82 36.3884 29.6153L36.3842 29.6111Z" fill="#A5CD89"/>
<path d="M50.7457 46.2699C51.1572 46.2069 51.5772 46.1523 51.9845 46.0599C51.8081 48.9238 51.048 51.519 48.8392 53.4759C46.6178 55.4454 43.6866 56.407 41.02 57.5997C39.059 58.4773 36.7661 59.8169 35.2838 61.379C34.8386 61.8494 34.3431 62.4079 34.0366 62.9832H32.4282C33.4067 61.2489 34.6455 59.7581 36.2664 58.5865C36.9551 58.0868 37.7194 57.692 38.4711 57.3015C39.3865 56.8228 40.3146 56.3777 41.2636 55.9703C45.022 54.3578 48.4823 53.0854 50.0444 48.9616C50.3678 48.1092 50.6281 47.1685 50.7499 46.2657L50.7457 46.2699Z" fill="#A5CD89"/>
<path d="M35.8213 -0.00250244H36.8669C36.4764 0.648393 36.1278 1.32029 35.8171 2.01318C35.309 3.15119 34.8764 4.348 34.1542 5.36844C32.3778 7.88804 29.6567 8.57253 26.9271 9.56777C25.0374 10.2565 23.0889 11.0459 21.4764 12.2679C19.0324 14.1198 18.1925 16.3539 17.781 19.3228C17.4744 19.1212 17.1721 18.9155 16.8823 18.6887C17.0335 16.5009 17.4282 14.3382 18.8182 12.5661C20.0612 10.9787 21.9761 10.0717 23.7734 9.26542C24.2773 9.03865 24.8149 8.7531 25.3482 8.61872C25.5371 8.56833 25.7303 8.58092 25.9193 8.55573C26.7046 8.45075 28.6068 7.74526 29.3459 7.41771C34.0912 5.31385 33.1127 3.58792 35.8213 -0.00250244Z" fill="#A5CD89"/>
<path d="M54.0887 45.4132C54.4204 45.3166 55.3275 45.0269 55.5585 44.8001C55.7054 45.1571 54.9747 48.9532 54.811 49.5831C54.622 50.3096 54.3826 51.0235 54.1013 51.7206C52.6483 55.2144 49.9314 57.3477 46.5005 58.7545C45.9168 58.9938 45.2827 59.1744 44.72 59.4558C44.2875 59.6699 43.8927 59.9807 43.4938 60.2494C42.276 61.0683 41.0918 61.862 40.1301 62.9874H38.3286C39.538 61.0851 41.3605 59.544 43.3552 58.5109C44.3504 57.9944 45.4507 57.6417 46.4669 57.1545C50.2127 55.3488 52.4132 53.0182 53.4924 48.9658C53.6352 48.4367 54.2063 45.9003 54.1223 45.4888C54.1139 45.4468 54.1097 45.4468 54.0929 45.4132H54.0887Z" fill="#A5CD89"/>
<path d="M7.02637 15.6442C7.23213 15.7534 7.51769 16.1691 7.68986 16.3539C8.16019 16.8578 8.6767 17.3239 9.18902 17.7817C12.2629 20.5196 15.866 22.7243 18.4065 26.0291C18.6795 26.3903 18.9357 26.7598 19.175 27.1378C19.4144 27.5199 19.6369 27.9104 19.8469 28.3094C20.4432 29.4558 20.9513 30.6568 21.7954 31.6478C22.4085 32.3617 23.1308 32.916 23.8909 33.4661L23.3953 33.9659L22.9754 34.3942C22.3959 34.1002 21.8164 33.8105 21.2831 33.441C18.0454 31.1985 18.1294 27.9776 15.7148 25.2607C15.4082 24.9163 15.0849 24.5888 14.7447 24.278C14.4046 23.9673 14.0518 23.6691 13.6823 23.392C13.1154 22.9678 12.5191 22.5773 11.9648 22.1406C10.0457 20.6246 7.48409 18.1512 7.03057 15.6484L7.02637 15.6442Z" fill="#A5CD89"/>
<path d="M73.4094 33.5417C73.5396 33.7769 73.5354 34.6839 73.4598 34.9485C73.4472 34.9863 73.4262 35.0241 73.4094 35.0619C73.2709 35.0787 73.1281 35.0913 72.9895 35.0997C69.6972 35.3768 66.9131 36.7836 64.784 39.3158C64.6329 39.4964 64.4901 39.6853 64.3515 39.8743C64.2129 40.0633 64.0827 40.2606 63.9568 40.4622C63.8308 40.6638 63.7132 40.8653 63.5998 41.0753C63.4864 41.2811 63.3814 41.4952 63.2849 41.7094C62.5752 43.259 62.1594 44.9765 61.6513 46.6016C61.1558 48.1806 60.4461 49.7259 60.3201 51.3931C60.2739 52.023 60.3411 52.6865 60.5217 53.2912C60.5721 53.4549 60.7191 53.6775 60.7233 53.8371C60.7233 53.8497 60.7233 53.8623 60.7233 53.8749C60.6393 54.0218 59.4593 55.0381 59.2745 55.1389C59.2955 54.8953 59.0351 54.4964 58.9512 54.2528C58.7748 53.7405 58.6866 53.161 58.674 52.6193C58.6194 50.0535 59.938 47.6263 60.7443 45.2494C61.433 43.217 61.6975 41.5414 62.7264 39.5804C62.9741 39.1058 63.2513 38.6103 63.6292 38.2282C63.8854 37.9636 64.1961 37.7452 64.4649 37.4933C64.8932 37.0902 65.3047 36.6786 65.7625 36.3091C67.9755 34.5286 70.5707 33.5837 73.4094 33.5417Z" fill="#A5CD89"/>
<path d="M36.8713 41.7262C37.3836 42.2469 37.896 42.7718 38.4545 43.2464C39.1012 45.7701 38.5679 48.6467 37.2535 50.8765C36.4976 52.1573 35.2168 53.7531 33.978 54.5845C32.1387 55.8191 29.2999 56.1971 27.9855 58.0532C27.1583 59.2206 26.52 61.568 25.9279 62.9874H24.3447C24.5337 62.5255 24.7101 62.0551 24.8276 61.568C25.0082 60.8163 25.0712 60.0353 25.214 59.2794C25.6003 57.2259 26.7551 55.9199 28.649 55.1263C29.8542 54.6223 31.1224 54.2612 32.336 53.7699C32.7602 53.5977 33.2263 53.4423 33.6042 53.182C34.1796 52.783 34.6751 52.2035 35.1076 51.6576C35.6787 50.9311 36.1658 50.15 36.5144 49.2934C36.5606 49.1758 36.6068 49.0582 36.6488 48.9406C36.6908 48.8231 36.7327 48.7055 36.7705 48.5837C36.8083 48.4661 36.8461 48.3443 36.8797 48.2268C36.9133 48.105 36.9469 47.9874 36.9763 47.8656C37.0057 47.7438 37.0351 47.6221 37.0645 47.5003C37.0897 47.3785 37.1149 47.2567 37.1401 47.1307C37.1611 47.009 37.1821 46.883 37.2031 46.7612C37.2199 46.6394 37.2367 46.5134 37.2535 46.3874C37.2661 46.2615 37.2829 46.1397 37.2913 46.0137C37.3038 45.8877 37.3123 45.766 37.3165 45.64C37.3249 45.514 37.329 45.388 37.329 45.2662C37.329 45.1402 37.329 45.0143 37.329 44.8925C37.329 44.7665 37.3249 44.6405 37.3165 44.5187C37.3081 44.397 37.3038 44.2668 37.2913 44.145C37.2829 44.019 37.2703 43.8972 37.2535 43.7713C37.2409 43.6453 37.2241 43.5235 37.2031 43.3975C37.1191 42.839 36.9511 42.2931 36.8671 41.7346L36.8713 41.7262Z" fill="#A5CD89"/>
<path d="M32.3403 36.0361C32.3403 36.0529 32.3529 36.0865 32.3529 36.1033C32.3487 36.2461 32.1891 36.5065 32.1304 36.6408C31.8028 37.3715 31.6348 38.0938 31.5508 38.8917C31.4291 40.0675 31.3955 41.2685 31.1855 42.4317C30.5976 45.7156 28.6995 48.1218 25.7768 49.6756C24.3112 50.4566 22.791 51.1201 21.5564 52.2581C20.4184 53.308 19.503 54.7105 19.2216 56.2517C19.1124 56.8438 19.0998 57.4485 19.0746 58.0532L18.365 57.6921C18.323 57.6669 18.2768 57.6375 18.2432 57.6039C18.05 57.3981 18.0164 56.5247 18.008 56.2181C17.9198 53.6481 19.4526 51.4183 21.5438 50.0451C22.2955 49.5496 23.1186 49.1632 23.9081 48.7307C25.361 47.937 26.8266 46.9124 27.784 45.535C28.4979 44.5104 28.9011 43.3598 29.2958 42.1881C30.0307 40.0003 30.7278 37.7537 32.3403 36.0361Z" fill="#A5CD89"/>
<path d="M59.077 -0.00250244H60.6308C60.635 0.0478895 60.635 0.0856835 60.6182 0.131876C60.4376 0.589603 60.1731 1.02633 59.9211 1.44627C59.4634 2.20634 58.9007 2.97482 58.2078 3.53753C57.6325 3.99946 56.9144 4.32281 56.2341 4.59576C55.726 4.80153 55.2095 4.9905 54.6845 5.15427C54.1596 5.31805 53.6305 5.46082 53.093 5.5826C50.5902 6.12852 48.2302 6.28389 45.8408 7.36732C42.8718 8.7195 40.4026 10.9325 39.21 14.0065C38.7061 15.3083 38.3912 16.6646 37.904 17.9748C37.5975 17.5717 37.2405 17.2021 36.8794 16.8494C37.1985 14.8043 38.2442 12.4443 39.5208 10.8108C42.6367 6.834 46.1137 5.67499 50.7708 4.32701C52.0054 3.97006 53.1896 3.49134 54.4662 3.33596C56.0745 3.1386 57.6073 2.14335 58.5941 0.879357C58.7411 0.690387 59.1106 0.236859 59.0812 -0.00250244H59.077Z" fill="#A5CD89"/>
<path d="M38.324 -0.00250244H40.1255C39.7644 0.467822 39.4326 0.946546 39.1555 1.47146C37.9251 3.78529 37.4464 6.36368 35.6239 8.35416C34.3137 9.78193 32.2056 10.8864 30.4125 11.554C27.9097 12.4863 25.3313 13.0868 23.3786 15.0521C21.216 17.2273 20.7498 19.2304 20.754 22.2371C20.2837 21.7668 19.7882 21.3217 19.2969 20.8766C19.4774 16.4421 21.0732 13.8973 25.1549 12.1C25.9906 11.7304 26.8683 11.4407 27.7249 11.1215C28.5942 10.794 29.4508 10.4454 30.3033 10.0801C31.8445 9.42919 33.2386 8.7489 34.4354 7.55629C35.9934 6.00674 36.4427 3.96586 37.2616 2.00478C37.5556 1.29929 37.9251 0.652593 38.3282 0.00169689L38.324 -0.00250244Z" fill="#A5CD89"/>
<path d="M37.3164 25.5924C37.3164 25.8318 36.9259 27.0916 36.8461 27.4065C35.8131 27.8516 34.8178 28.3933 33.8184 28.9015C29.3377 31.1859 24.3489 34.2934 22.812 39.3998C22.4676 40.5462 22.329 41.7304 22.0981 42.8978C22.0435 43.1792 21.9805 43.4563 21.9091 43.7335C21.8377 44.0106 21.7579 44.2836 21.6697 44.5566C21.5816 44.8295 21.485 45.0983 21.3842 45.3628C21.2792 45.6274 21.17 45.8919 21.0524 46.1523C20.5149 47.3071 19.8094 48.3864 19.0284 49.3942C18.5245 50.0451 17.9869 50.6624 17.5208 51.3385C16.3282 53.0644 15.8243 54.6181 16.2064 56.7178C15.9461 56.6296 15.6899 56.5204 15.4379 56.4155C15.3246 56.3777 15.1944 56.3483 15.1272 56.2475C14.7451 55.6848 14.8542 54.2822 14.976 53.6565C15.0348 53.3584 15.1608 53.0728 15.2742 52.7956C15.9377 51.1495 17.0253 49.8393 18.0373 48.4073C18.6294 47.5675 19.2047 46.673 19.6541 45.7492C20.8509 43.2842 20.8887 40.4328 21.8839 37.9006C23.3117 34.2766 27.2507 31.2909 30.5387 29.4054C32.8232 28.0952 35.1118 27.079 37.329 25.5882L37.3164 25.5924Z" fill="#A5CD89"/>
<path d="M33.4277 37.4177C33.4445 37.4303 33.4739 37.4555 33.4907 37.4723C33.6923 37.7074 33.8225 38.2324 33.9359 38.5347C34.6707 40.4832 35.33 42.5703 35.2754 44.6741C35.2712 44.8841 35.2545 45.0941 35.2377 45.304C35.2167 45.514 35.1915 45.724 35.1579 45.9297C35.1243 46.1355 35.0823 46.3455 35.0361 46.547C34.9899 46.7528 34.9353 46.9544 34.8723 47.1559C33.9863 50.1711 31.8026 51.7752 28.9807 52.9006C27.4815 53.4969 25.6128 54.026 24.4244 55.1641C22.9168 56.6086 22.5389 58.2422 22.5053 60.2494L22.4885 60.4006L22.4423 60.4174C22.1022 60.1445 21.762 59.8715 21.4345 59.5818C21.4009 58.9729 21.2581 58.3681 21.2413 57.7592C21.2203 56.9404 21.5142 56.1887 21.8964 55.4748C24.0045 51.5064 28.2878 51.9054 31.0761 48.9239C32.8734 47.0048 33.8057 44.0526 33.7427 41.4533C33.7091 40.1011 33.4739 38.7657 33.4319 37.4177H33.4277Z" fill="#A5CD89"/>
<path d="M-7.12515 21.8886C-6.73461 21.7206 -6.25169 21.582 -5.89474 21.3595C-5.84015 21.2209 -5.81496 21.0697 -5.70158 20.9689L-5.62179 20.9773C-5.58399 21.4771 -5.29424 22.065 -5.29004 22.4429H-5.34043C-5.36143 22.4429 -5.38243 22.4429 -5.40342 22.4429C-5.42442 22.4429 -5.44542 22.4429 -5.46641 22.4471C-5.48741 22.4471 -5.50841 22.4513 -5.5294 22.4555C-5.5504 22.4555 -5.5714 22.4639 -5.58819 22.4681C-5.60919 22.4723 -5.63019 22.4765 -5.64698 22.4807C-5.66798 22.4849 -5.68478 22.4933 -5.70578 22.4975C-5.72677 22.5017 -5.74357 22.5101 -5.76457 22.5185C-5.78556 22.5269 -5.80236 22.5353 -5.82336 22.5395C-5.84015 22.5479 -5.86115 22.5563 -5.87795 22.5647C-5.89475 22.5731 -5.91574 22.5815 -5.93254 22.5941C-5.94934 22.6067 -5.96613 22.6151 -5.98713 22.6235C-6.00393 22.6361 -6.02072 22.6445 -6.03752 22.6571C-6.05432 22.6697 -6.07112 22.6823 -6.08791 22.6949C-6.10471 22.7075 -6.12151 22.7201 -6.13411 22.7327C-6.1509 22.7453 -6.1635 22.7578 -6.1803 22.7746C-6.1971 22.7872 -6.20969 22.804 -6.22229 22.8166C-6.37347 22.9804 -6.39866 23.2366 -6.38187 23.4507C-6.33987 24.1394 -5.79816 24.7693 -5.29844 25.1977C-4.26541 26.0795 -2.82084 26.4155 -1.56104 26.8354C-0.910142 27.058 -0.263445 27.2973 0.374852 27.5577C1.63045 28.0742 2.80206 28.7965 3.91069 29.5734C5.34266 30.5812 6.56466 31.7486 7.52211 33.2184C8.10162 34.1086 8.62233 35.0493 9.23964 35.9185C11.8264 39.5804 15.2699 41.932 19.8639 41.8564C19.738 42.4569 19.5994 43.0616 19.4104 43.6495C17.6215 43.1372 15.7906 42.7425 14.0983 41.9488C11.2427 40.605 9.4328 38.056 7.6061 35.5868C7.17356 35.0031 6.76203 34.3942 6.28751 33.8441C5.35106 32.7564 4.22564 31.8452 3.10022 30.9675C1.74383 29.9093 0.206879 29.1576 -1.37207 28.4899C-3.27016 27.6879 -6.92778 26.911 -7.96081 25.0423C-8.25477 24.5132 -8.32616 23.9253 -8.14978 23.3416C-8.0826 23.119 -7.97341 22.909 -7.85583 22.7075C-7.64167 22.4009 -7.4443 22.0776 -7.12515 21.8718V21.8886Z" fill="#A5CD89"/>
<path d="M42.6242 -0.00250244H45.3328C44.7868 0.505616 44.1863 0.778573 43.6824 1.36648C42.5276 2.71446 41.7129 4.60836 41.0494 6.2503C40.8941 6.63664 40.7849 7.04397 40.6211 7.42611C40.3692 8.01402 39.8568 8.54733 39.4453 9.03445C37.7698 11.0039 36.3588 12.0118 34.024 13.0826C33.2219 13.4521 32.4156 13.8049 31.58 14.0904C31.181 14.1702 30.7359 14.4222 30.3538 14.5818C28.8798 15.1991 27.2379 15.7828 26.041 16.883C26.0033 16.9208 25.9613 16.9586 25.9235 16.9964C25.8857 17.0342 25.8479 17.072 25.8101 17.114C25.7723 17.1518 25.7345 17.1937 25.6967 17.2315C25.6589 17.2735 25.6253 17.3113 25.5875 17.3533C25.5497 17.3953 25.5161 17.4373 25.4825 17.4751C25.4489 17.5129 25.4154 17.5591 25.3776 17.6011C25.344 17.6431 25.3104 17.6851 25.2768 17.7313C25.2432 17.7733 25.2138 17.8194 25.1802 17.8614C25.1466 17.9076 25.1172 17.9496 25.0878 17.9958C25.0584 18.042 25.029 18.084 24.9954 18.1302C24.966 18.1764 24.9366 18.2226 24.9072 18.2688C24.8778 18.315 24.8526 18.3612 24.8232 18.4074C24.798 18.4535 24.7687 18.4997 24.7435 18.5501C24.7183 18.5963 24.6931 18.6467 24.6679 18.6929C24.6427 18.7433 24.6175 18.7895 24.5965 18.8399C24.5713 18.8903 24.5503 18.9365 24.5251 18.9869C24.5041 19.0373 24.4789 19.0876 24.4579 19.138C24.4369 19.1884 24.4159 19.2388 24.3949 19.2892C24.3739 19.3396 24.3571 19.39 24.3361 19.4404C24.3151 19.4908 24.2983 19.5412 24.2815 19.5958C24.2647 19.6462 24.2479 19.7007 24.2311 19.7511C24.2143 19.8015 24.1975 19.8561 24.1849 19.9065C24.1681 19.9569 24.1556 20.0115 24.143 20.0619C24.1304 20.1165 24.1178 20.1669 24.1052 20.2215C24.0926 20.2761 24.08 20.3264 24.0674 20.381C24.0548 20.4356 24.0464 20.486 24.0338 20.5406C24.0254 20.5952 24.0128 20.6456 24.0044 20.7002C23.996 20.7548 23.9876 20.8094 23.9792 20.8598C23.9708 20.9144 23.9666 20.9689 23.9582 21.0235C23.954 21.0781 23.9456 21.1327 23.9414 21.1873C23.9372 21.2419 23.933 21.2965 23.9288 21.3511C23.9246 21.4057 23.9246 21.4603 23.9204 21.5149C23.8994 22.1238 24.0212 22.7453 24.1891 23.329C24.987 26.1131 27.0951 27.3771 28.9764 29.3844C28.5984 29.5734 28.2331 29.8127 27.8678 30.0269C26.6332 28.8133 24.6385 26.8858 23.7524 25.458C23.4837 25.0297 23.2821 24.551 23.1351 24.0638C22.5472 22.0944 22.7908 19.4698 23.7776 17.6599C25.281 14.9009 28.7244 13.7419 31.5506 12.902C32.4576 12.6921 34.0324 11.8564 34.8596 11.3693C35.9767 10.71 37.2617 9.86172 38.0553 8.81609C38.4081 8.34996 38.618 7.67807 38.8616 7.14056C39.9954 4.59996 40.6715 2.10556 42.6158 -0.00250244L42.6242 -0.00250244Z" fill="#A5CD89"/>
<path d="M4.01981 32.7648C4.37675 33.0504 4.6917 33.3947 4.99405 33.7349C5.27541 34.054 5.60296 34.39 5.80872 34.7637C6.21606 35.4902 6.46802 37.2287 6.5646 38.1022C6.92575 41.3189 6.40503 44.586 4.33476 47.1685C2.42407 49.5538 0.0304489 51.3553 -2.69911 52.7159C-3.27862 53.0056 -3.87913 53.3374 -4.50063 53.5137C-3.87493 54.0554 -3.20723 54.5762 -2.65712 55.1977C-1.09917 56.9698 -0.154322 59.46 0.630953 61.6604C0.786328 62.1014 0.975298 62.5423 1.11388 62.9874H-0.515464C-1.22095 61.1439 -1.86345 59.1996 -2.85029 57.4821C-4.45023 54.6937 -7.41496 52.7159 -10.4805 51.8844V50.5574C-9.46003 50.8598 -8.46059 51.1747 -7.51994 51.6786C-6.91524 52.0062 -6.34413 52.4051 -5.73523 52.7159C-1.61989 51.1453 2.844 48.1638 4.7001 44.0274C6.28325 40.5 5.07384 36.2713 4.01981 32.7607V32.7648Z" fill="#A5CD89"/>
<path d="M61.5004 2.02576L61.618 2.05935C61.8531 2.41209 61.9035 2.9832 61.9413 3.39894C61.9959 3.99104 61.8993 5.79675 61.5298 6.24608C61.3198 6.53584 60.8495 6.80039 60.5429 6.98936C58.9766 7.93001 57.1415 8.53052 55.3694 8.93785C54.3825 9.16461 53.3915 9.33679 52.413 9.60134C51.3842 9.8785 50.3596 10.2102 49.3937 10.6638C46.0511 12.2385 44.1488 14.019 42.0785 17.0426C41.2764 18.21 40.4576 19.4698 39.5001 20.5196C39.3489 20.2088 39.1894 19.8981 39.0298 19.5915C39.5715 18.8231 39.878 17.8992 40.1678 17.0132C40.7473 15.2494 41.31 13.4815 42.5698 12.0663C44.6779 9.69793 48.0038 8.49272 51.0693 8.04759C54.2566 7.58567 55.8397 7.83343 58.8674 6.28388C59.3965 6.01092 60.1062 5.66238 60.4883 5.20045C60.9167 4.68393 61.5634 2.69765 61.4962 2.02996L61.5004 2.02576Z" fill="#A5CD89"/>
<path d="M3.67974 13.8259C4.04508 13.9518 4.38523 14.1324 4.76317 14.2248C4.82196 18.021 6.4177 20.78 9.49161 22.9468C10.8816 23.9253 12.3472 24.7945 13.4852 26.0837C14.1067 26.785 14.64 27.5703 15.0179 28.4311C15.4043 29.3046 15.694 30.2242 16.1559 31.0641C17.357 33.2604 19.5994 35.0199 21.9888 35.7212L21.3967 36.6828C20.9264 36.6114 20.4351 36.4602 19.9815 36.3091C17.7307 35.5532 16.1433 34.0036 14.9633 31.9796C14.5476 31.2699 14.2075 30.5182 13.7707 29.8169C13.1912 28.8805 12.4605 27.9692 11.6585 27.2133C9.18086 24.8659 5.46025 23.8539 3.86451 20.6288C2.76429 18.4073 2.91126 16.1187 3.67974 13.8301V13.8259Z" fill="#A5CD89"/>
<path d="M-7.6499 -0.00250244H-6.55388C-6.49929 0.287251 -6.46569 0.581204 -6.4111 0.870958C-5.90718 3.56273 -4.39962 6.2545 -2.39654 8.119C-0.838592 9.56777 1.7104 10.794 3.69248 11.5079C5.10346 12.016 6.52703 12.4191 7.85822 13.1246C9.74372 14.1198 11.4654 15.5896 13.1116 16.9292C13.7667 17.4625 14.4428 17.9748 15.1021 18.5039C17.4957 20.4314 19.8641 22.5143 21.8042 24.9121C22.0855 25.2565 22.3501 25.6134 22.5979 25.9787C22.8456 26.3441 23.0808 26.722 23.2991 27.1084C24.2776 28.8595 24.6513 29.9849 26.3689 31.1565C26.0329 31.4043 25.7138 31.6646 25.3988 31.9376C23.7275 30.8668 23.1438 29.5776 22.2493 27.8852C22.0351 27.4695 21.8042 27.0664 21.5564 26.6674C21.3087 26.2727 21.0483 25.8864 20.7712 25.5084C19.4778 23.7867 17.7434 22.3253 16.0847 20.9689L12.0324 17.6599C10.3946 16.3371 8.76527 15.0311 6.87137 14.082C5.41841 13.3556 3.87305 12.9566 2.3403 12.4401C0.689963 11.8816 -0.960372 11.0543 -2.34195 9.9877C-2.99285 9.48798 -3.50937 8.87488 -4.02168 8.23658C-5.93658 5.85976 -7.25097 3.03781 -7.6499 -0.00250244Z" fill="#A5CD89"/>
<path d="M68.6896 51.1915C69.0969 51.2377 69.5042 51.3679 69.92 51.4183C71.0874 51.5568 72.2674 51.5736 73.4096 51.876C73.5314 52.086 73.5272 53.3919 73.46 53.6439C73.4516 53.6691 73.439 53.6985 73.4306 53.7237C73.5314 53.9631 73.5398 54.7735 73.46 55.0297C73.4516 55.0591 73.4306 55.0969 73.4138 55.1221C71.2974 54.3914 68.8407 54.6937 66.8419 55.6638C64.4944 56.806 62.8315 58.8469 61.6263 61.1103C61.3827 61.568 60.9208 62.6725 60.6353 62.9916H56.5703C57.4606 62.1769 58.3382 60.0017 59.0437 58.9267C60.9418 56.0417 63.7176 53.9715 66.6655 52.2497C67.1484 51.9726 67.6355 51.7122 68.1311 51.4645C68.299 51.3805 68.5048 51.3217 68.656 51.2209C68.6686 51.2125 68.6812 51.2041 68.6938 51.1957L68.6896 51.1915Z" fill="#344D27"/>
<path d="M59.0815 62.9874C59.4133 62.7144 59.8962 61.3329 60.0852 60.8835C60.9796 58.7671 62.1387 57.3393 63.9234 55.9199C64.7044 55.2984 65.5317 54.7273 66.4304 54.2864C68.1311 53.4465 69.8276 53.2702 71.7005 53.4297C72.2674 53.4759 72.8889 53.5347 73.4306 53.7195C73.5314 53.9588 73.5398 54.7693 73.46 55.0255C73.4516 55.0549 73.4306 55.0927 73.4139 55.1179C71.2974 54.3872 68.8408 54.6895 66.8419 55.6596C64.4945 56.8018 62.8315 58.8427 61.6263 61.1061C61.3828 61.5638 60.9208 62.6683 60.6353 62.9874H59.0815Z" fill="#A5CD89"/>
<path d="M-10.4844 24.3074C-9.95526 25.836 -8.97262 27.0538 -7.49445 27.7635C-6.39843 28.2926 -5.17222 28.4731 -4.02161 28.8511C-1.65739 29.628 -0.225416 30.7072 1.20655 32.7187C1.82806 33.5921 2.1556 34.0834 2.52095 35.1123C3.53718 38.0014 4.38965 39.9247 2.96607 42.8978C1.62229 45.7072 -0.930902 47.853 -3.53029 49.4656C-4.14339 49.8477 -4.83628 50.2971 -5.52077 50.5322C-6.15067 50.7506 -6.89395 50.7254 -7.54904 50.864C-7.89759 50.7422 -8.24193 50.6204 -8.56948 50.4524C-4.74389 48.6467 -0.859514 46.4925 0.648045 42.2763C1.34933 40.3152 1.13097 38.8077 0.874808 36.8046C0.828615 36.4561 0.841213 36.0991 0.803419 35.7506C0.748828 35.2593 0.526264 34.7301 0.316298 34.2808C-0.830119 31.8662 -2.73242 30.9255 -5.14283 30.0773C-7.12911 29.376 -8.97262 28.8931 -10.4844 27.3141V24.299V24.3074Z" fill="#A5CD89"/>
<path d="M52.5641 43.4647C54.6176 42.923 56.9944 41.1971 58.4054 39.6391C59.2285 38.7321 59.934 37.7032 60.6688 36.7206C61.4289 35.7044 62.1932 34.7133 62.8819 33.6467C63.7302 32.3323 64.486 30.8835 65.4939 29.6867C65.7836 29.3424 66.149 29.0316 66.5101 28.7587C66.8293 28.5193 68.383 27.6123 68.4796 27.4233C68.4838 27.4149 68.488 27.4023 68.488 27.3939C68.6728 27.5661 69.0843 28.1876 69.0969 28.4353C69.0885 28.4437 69.0759 28.4563 69.0675 28.4647C68.9205 28.6075 68.698 28.7125 68.5258 28.8385C68.0681 29.1828 67.6523 29.5607 67.287 30.0017C66.5605 30.8709 65.8634 32.0551 65.2251 33.0126C64.486 34.1212 63.7218 35.2046 62.9575 36.2965C61.0972 38.9588 59.2873 41.428 56.4905 43.196C56.0538 43.4731 55.5583 43.7923 55.0753 43.9812C54.983 44.0904 54.7142 44.187 54.5756 44.2542C53.2276 44.8925 51.7411 45.3208 50.2671 45.5476C46.6977 46.0935 42.6873 45.304 39.752 43.1414C38.635 42.3183 37.1232 40.9367 36.3841 39.7651C35.4729 38.3205 34.7884 35.6624 34.5322 33.97C34.99 33.6761 35.4519 33.3905 35.9222 33.1134C35.9138 34.4656 36.0272 35.717 36.4429 37.0104C37.2702 39.5803 39.2607 41.5666 41.6291 42.776C44.976 44.4894 49.0241 44.5985 52.5599 43.4647H52.5641Z" fill="#A5CD89"/>
<path d="M0.841044 12.7424C1.1224 12.881 1.39535 13.0112 1.68931 13.1162C1.31137 14.187 0.92503 15.241 0.815847 16.3791C0.471503 19.9569 1.7313 23.0434 4.72962 25.0969C6.41355 26.2517 8.21087 27.1251 9.65543 28.6117C9.83601 28.7965 10.0082 28.9854 10.1762 29.1828C10.3441 29.376 10.5037 29.5775 10.6591 29.7833C10.8144 29.9891 10.9614 30.199 11.1042 30.4132C11.247 30.6274 11.3814 30.8457 11.5115 31.0683C12.2338 32.3071 12.7923 33.5837 13.7162 34.7007C15.6101 36.9978 17.8189 38.0224 20.7459 38.3079C20.5989 38.8245 20.4519 39.341 20.3175 39.8617C19.9984 39.8659 19.6876 39.8533 19.3727 39.8323C15.4463 39.4796 12.8385 37.4639 10.7557 34.222C9.71422 32.6011 8.79877 30.9213 7.44659 29.5229C6.24138 28.2757 4.73802 27.5283 3.29345 26.6086C2.75174 26.2559 2.23102 25.8779 1.7313 25.4664C0.026373 24.0764 -1.29222 22.0859 -1.51478 19.8687C-1.72055 17.8194 -1.13264 16.0053 -0.133201 14.2416C0.160752 13.7251 0.458905 13.2086 0.836844 12.7466L0.841044 12.7424Z" fill="#A5CD89"/>
<path d="M66.2916 -0.00250244H67.9335C68.1057 0.161271 68.2148 0.383836 68.324 0.593802C69.8568 3.51234 70.4909 8.1316 69.483 11.3063C69.0043 12.8222 67.7109 14.3592 66.6023 15.4762C63.373 18.7391 60.845 19.9527 56.5491 21.2881C55.0877 21.7416 53.5718 22.1364 52.207 22.846C45.9794 26.0837 46.983 29.7497 45.1353 35.6036C44.686 34.6462 44.4256 32.7649 44.3585 31.694C44.2577 30.0017 44.7658 28.259 45.4671 26.7346C47.046 23.3038 49.7336 21.3763 53.3198 20.3558C54.7266 19.9569 56.1796 19.7007 57.5779 19.2556C58.422 18.9869 59.2409 18.6257 60.043 18.2562C62.5415 17.1098 64.1709 16.0263 66.0144 13.9435C66.8669 12.9776 68.0721 11.4155 68.4374 10.1683C68.7524 9.11004 68.7314 7.64447 68.6642 6.54845C68.5382 4.57057 67.9881 2.68087 66.976 0.971742C66.7871 0.652593 66.5645 0.245258 66.2873 -0.00250244L66.2916 -0.00250244Z" fill="#A5CD89"/>
<path d="M60.6353 62.9874C60.9208 62.6683 61.3827 61.5638 61.6263 61.1061C62.8315 58.8469 64.4944 56.8018 66.8419 55.6596C68.8365 54.6895 71.2973 54.3872 73.4138 55.1179C73.523 55.3194 73.5272 56.4868 73.46 56.7136C73.4516 56.743 73.439 56.764 73.4264 56.7934C73.523 57.0118 73.5398 58.154 73.4516 58.3849C73.4432 58.4017 73.4348 58.4227 73.4306 58.4395C73.5356 58.6705 73.544 60.0437 73.4558 60.2956C73.4474 60.3292 73.4432 60.3292 73.4306 60.3544C73.5188 60.5686 73.5398 61.6058 73.4516 61.8242C73.4432 61.841 73.4348 61.8578 73.4264 61.8788C73.523 62.0887 73.5398 62.6808 73.4558 62.9076C73.4474 62.937 73.4306 62.958 73.4138 62.9874H60.6395H60.6353Z" fill="#344D27"/>
<path d="M62.7561 62.0005C63.092 62.1517 63.6883 62.6263 63.8731 62.937V62.9874C63.8773 62.9874 62.2773 62.9874 62.2773 62.9874C62.4243 62.7984 62.7645 62.2273 62.7561 62.0005Z" fill="#A5CD89"/>
<path d="M63.2765 5.71698C63.3059 5.73798 63.3311 5.77157 63.3563 5.80097C63.4781 6.38047 63.2933 7.74945 63.033 8.26597C62.8566 8.61872 62.5962 8.95046 62.3569 9.26541C60.6267 11.5498 57.8972 12.8348 55.1676 13.4941C54.4201 13.6747 53.6433 13.7587 52.8874 13.9015C52.1315 14.0442 51.3672 14.2668 50.6365 14.5104C46.0131 16.0641 43.0022 18.9827 40.8605 23.3206C40.2348 24.5846 39.8023 25.878 39.4705 27.2469C38.7734 30.1277 38.6895 33.0084 39.6511 35.843C40.3566 37.9258 41.6164 39.4544 43.6027 40.4328C45.8283 41.5289 48.9652 41.4743 51.279 40.6764C55.2306 39.3158 56.3518 36.8298 58.6909 33.7223C58.926 33.4073 59.157 33.0882 59.4131 32.7858C59.7113 32.4373 60.1942 32.0426 60.3958 31.6394C60.5218 31.4379 60.4714 30.9591 60.589 30.6904C61.1559 29.397 62.1091 28.0994 63.075 27.079C63.5831 26.5456 64.1668 26.0627 64.7673 25.6344C65.1998 25.3278 66.9677 24.2486 67.1777 23.9715C67.2659 24.0974 67.7152 25.6806 67.6942 25.8276C67.5724 25.9703 67.3247 26.0669 67.1525 26.1383C67.0307 26.2979 66.0271 26.827 65.7835 26.9992C64.9017 27.6123 63.9988 28.3934 63.3311 29.2416C62.4997 30.2956 61.8572 31.5093 61.1223 32.6347C60.526 33.5501 59.8289 34.3816 59.1696 35.2509C57.9266 36.8886 56.818 38.5221 55.2054 39.8365C52.8832 41.7304 49.1752 42.7635 46.2063 42.4611C43.6909 42.2049 41.1419 40.8402 39.5461 38.8707C37.6396 36.5149 37.1693 32.7397 37.4759 29.8169C37.7698 26.9992 38.5677 24.3326 39.9577 21.8634C40.5834 20.7548 41.293 19.6629 42.1245 18.6971C44.7743 15.619 48.6041 13.4857 52.4171 12.2007C53.3283 11.8942 54.269 11.6632 55.197 11.4113C57.7586 10.71 60.2152 9.89111 62.3023 8.19458C62.4829 8.04761 62.676 7.88383 62.802 7.69066C63.0624 7.29173 63.2303 6.2293 63.2765 5.75477C63.2765 5.74218 63.2765 5.73378 63.2765 5.72118V5.71698Z" fill="#A5CD89"/>
<path d="M62.2394 -0.00250244H63.9233C63.9527 0.0184942 63.9821 0.0394908 64.0073 0.0604875C64.2676 0.283052 64.5112 0.585404 64.7212 0.85416C65.9432 2.41631 66.6067 4.41939 66.7494 6.38468C66.825 7.40091 66.8628 8.69431 66.5479 9.67275C66.3211 10.374 65.8046 11.0165 65.3679 11.6002C63.4992 14.103 61.3575 15.4216 58.4642 16.5303C57.6453 16.8452 56.8138 17.1476 55.974 17.3953C54.0255 17.9748 52.1946 18.168 50.2713 18.9659C48.3984 19.7427 46.5507 20.9857 45.2237 22.5269C43.0862 25.0087 41.8474 28.5235 42.091 31.8032C42.2254 33.6299 42.7713 35.78 44.2242 37.0188C45.4337 38.0518 47.1596 38.1358 48.6755 38.014C50.4267 37.8754 52.014 37.2581 53.467 36.2797C55.3777 34.9905 56.7886 33.3864 57.6663 31.2405C57.9099 30.64 58.103 30.0185 58.3298 29.4138C58.8841 27.9272 59.5896 26.4617 60.6268 25.2481C62.5585 22.9888 65.4266 21.5401 68.3242 20.9773C69.2816 20.7884 70.554 20.6918 71.5451 20.6162C71.4401 20.9521 70.7304 21.4351 70.4322 21.5904C69.5966 22.0272 68.5509 22.1658 67.6481 22.4261C64.8807 23.2198 62.5081 24.8953 61.0845 27.4317C60.9376 27.6921 60.8074 27.9608 60.694 28.2338C60.5806 28.5067 60.4798 28.7881 60.3959 29.0778C60.2741 29.523 60.1943 29.9765 60.0179 30.4048C59.8709 30.7744 59.6484 31.1355 59.4258 31.4673C58.9429 32.1937 58.3256 32.853 57.7755 33.5333C55.7178 36.0865 53.5593 38.5053 50.1915 39.173C48.1128 39.5846 45.4672 39.551 43.6489 38.3206C42.2632 37.3799 41.4317 35.5616 41.1335 33.9575C40.3651 29.8463 41.5871 25.437 43.9261 22.023C46.3407 18.4997 49.6498 16.7528 53.7483 15.8038C54.5378 15.619 55.3441 15.5014 56.1377 15.3502C59.6736 14.6909 61.9538 13.5109 64.0157 10.4958C64.3222 10.0465 64.6162 9.56777 64.8135 9.05965C65.2335 7.96362 65.2461 6.56525 65.0277 5.41883C64.7254 3.81469 63.8351 2.18535 62.7139 1.00534C62.5249 0.803769 62.3233 0.577005 62.0924 0.42163C62.1302 0.383836 62.168 0.337643 62.1932 0.287251C62.2478 0.186467 62.2562 0.10668 62.231 0.00169689L62.2394 -0.00250244Z" fill="#A5CD89"/>
</g>
<defs>
<clipPath id="clip0_145_338">
<rect width="63" height="63" rx="31.5" fill="white"/>
</clipPath>
</defs>
</svg>
