<svg xmlns="http://www.w3.org/2000/svg" width="24" height="24" fill="none"><g clip-path="url(#a)"><path fill="#00A3FF" d="M12 24c6.627 0 12-5.373 12-12S18.627 0 12 0 0 5.373 0 12s5.373 12 12 12"/><path fill="#fff" d="m7.078 11.147-.135.207a5.79 5.79 0 0 0 .814 7.319 6.04 6.04 0 0 0 4.24 1.72z"/><path fill="#99DAFF" d="m11.996 13.958-4.92-2.81 4.92 9.246zm4.926-2.811.135.207a5.79 5.79 0 0 1-.814 7.319 6.04 6.04 0 0 1-4.24 1.72z"/><path fill="#33B6FF" d="m12.002 13.958 4.92-2.81-4.92 9.246zm.002-6.278v4.847l4.238-2.422z"/><path fill="#99DAFF" d="m12.003 7.68-4.241 2.425 4.24 2.422z"/><path fill="#fff" d="m12.003 3.604-4.241 6.502 4.24-2.432z"/><path fill="#99DAFF" d="m12.004 7.674 4.241 2.431L12.004 3.6z"/></g><defs><clipPath id="a"><path fill="#fff" d="M0 0h24v24H0z"/></clipPath></defs></svg>