<svg width="148" height="148" viewBox="0 0 148 148" fill="none" xmlns="http://www.w3.org/2000/svg">
<g clip-path="url(#clip0_56_219)">
<path d="M74 148C114.869 148 148 114.869 148 74C148 33.1309 114.869 0 74 0C33.1309 0 0 33.1309 0 74C0 114.869 33.1309 148 74 148Z" fill="#0675F9"/>
<path d="M125.068 78.7182C130.501 95.0518 121.655 112.695 105.333 118.128C88.9995 123.561 71.3558 114.715 65.9233 98.3931C60.4908 82.0595 69.3367 64.4158 85.6582 58.9833C101.992 53.5508 119.636 62.3966 125.068 78.7182ZM82.293 23.6479L55.503 23.2393L54.0006 120.412L80.7906 120.82L82.293 23.6479ZM32.4028 34.4528L13.9058 53.3344L54.9982 93.5975L55.3948 58.2021L32.4028 34.4528Z" fill="white"/>
</g>
<defs>
<clipPath id="clip0_56_219">
<rect width="148" height="148" fill="white"/>
</clipPath>
</defs>
</svg>
