<svg width="512" height="512" viewBox="0 0 512 512" fill="none" xmlns="http://www.w3.org/2000/svg">
<path d="M256 512C397.385 512 512 397.385 512 256C512 114.615 397.385 0 256 0C114.615 0 0 114.615 0 256C0 397.385 114.615 512 256 512Z" fill="#0657F9"/>
<mask id="mask0_2167_1291" style="mask-type:alpha" maskUnits="userSpaceOnUse" x="0" y="0" width="512" height="512">
<path d="M256 512C397.385 512 512 397.385 512 256C512 114.615 397.385 0 256 0C114.615 0 0 114.615 0 256C0 397.385 114.615 512 256 512Z" fill="#0675F9"/>
</mask>
<g mask="url(#mask0_2167_1291)">
<path d="M364.035 85.2204C364.259 73.3497 354.819 63.544 342.949 63.3189C331.077 63.0942 321.272 72.5349 321.047 84.406L320.234 127.317C250.368 144.973 206.674 215.062 222.215 285.96C232.981 335.08 281.257 364.936 330.377 354.169C334.754 353.21 339.006 351.953 343.25 350.699C347.483 349.448 351.708 348.199 356.047 347.248C381.972 341.566 407.323 356.74 413.005 382.664C423.772 431.783 392.681 480.331 343.561 491.098C317.636 496.78 292.014 480.371 286.332 454.446C285.996 452.916 285.834 451.388 285.829 449.883C291.564 463.791 306.611 472.01 321.816 468.677C342.283 464.191 355.238 443.963 350.752 423.496C345.069 397.572 319.447 381.163 293.523 386.845C258.729 394.472 236.706 428.858 244.333 463.652C252.202 499.554 280.255 525.823 313.961 533.159L313.183 574.198C312.959 586.069 322.4 595.874 334.27 596.1C346.142 596.324 355.947 586.883 356.172 575.013L356.985 532.102C426.851 514.446 470.544 444.356 455.004 373.458C444.238 324.338 395.96 294.483 346.841 305.249C342.452 306.211 338.191 307.47 333.942 308.727C329.713 309.976 325.494 311.223 321.172 312.17C295.247 317.853 269.896 302.679 264.214 276.754C253.447 227.635 284.538 179.087 333.658 168.321C359.583 162.638 385.205 179.048 390.887 204.972C391.222 206.503 391.385 208.031 391.39 209.535C385.655 195.627 370.607 187.409 355.402 190.742C334.935 195.228 321.981 215.455 326.467 235.922C332.15 261.847 357.772 278.256 383.696 272.573C418.49 264.947 440.512 230.56 432.886 195.766C425.017 159.865 396.964 133.594 363.258 126.26L364.035 85.2204Z" fill="white"/>
<path d="M258.417 37.2671C268.07 35.0717 275.928 35.7292 281.991 39.2387C288.411 42.6671 292.556 48.493 294.426 56.7163C295.727 62.4369 295.858 68.8003 294.819 75.8051C294.137 82.7284 292.359 88.9612 289.483 94.5034C286.607 100.046 283.023 103.305 278.733 104.281C277.303 104.606 275.694 104.972 273.907 105.378C272.395 105.346 270.664 105.175 268.713 104.867C264.732 103.892 260.417 103.934 255.769 104.991C229.061 111.065 217.216 130.768 208.437 156.017C197.967 186.13 190.606 203.837 184.858 239.739C178.093 279.767 177.459 310.793 184.858 343.329C186.565 350.837 189.167 358.142 192.662 365.244C196.433 371.906 201.692 377.666 208.437 382.525C213.232 387.075 216.158 391.674 217.215 396.322C219.004 404.188 216.258 411.957 208.978 419.629C201.617 426.944 191.322 432.105 178.093 435.114C167.01 437.634 158.079 437.221 151.301 433.874C144.442 430.169 139.63 422.239 136.866 410.082C134.752 400.787 133.255 387.59 132.375 370.493C131.772 352.957 132.012 333.348 133.098 311.667C126.985 298.016 120.036 283.992 112.25 269.593C104.739 254.756 96.716 240.975 88.182 228.25C77.08 210.846 65.2381 196.806 52.6577 186.13C40.0771 175.454 27.1718 171.62 13.9429 174.628C11.4403 175.198 8.9784 175.946 6.5571 176.873C4.4932 177.718 2.648 178.701 1.0229 179.823C-2.3898 181.351 -6.7131 179.702 -11.9468 174.875C-16.8228 169.968 -20.1551 163.582 -21.9439 155.716C-24.2205 145.705 -22.8166 136.173 -17.731 127.12C-12.3691 117.628 -3.6097 111.499 8.5464 108.735C23.5629 105.32 38.4669 107.195 53.2573 114.36C68.324 121.086 83.327 134.972 98.265 156.017C105.247 165.586 112.215 177 119.174 190.256L118.787 189.928C118.972 190.137 119.174 190.382 119.391 190.668C120.788 193.337 122.184 196.081 123.58 198.898C128.154 210.906 134.07 236.967 136.914 293.267C139.543 274.46 141.964 258.095 143.915 245.274C143.938 245.334 143.963 245.394 143.987 245.455C146.682 227.544 150.426 208.455 155.217 188.188C160.285 167.482 165.629 152.43 173.412 133.739C185.22 105.379 209.169 75.353 220.122 62.3335C230.992 48.9565 243.758 40.6008 258.417 37.2671Z" fill="white"/>
</g>
</svg>
