<svg width="520" height="520" viewBox="0 0 520 520" fill="none" xmlns="http://www.w3.org/2000/svg">
<mask id="mask0_34_25" style="mask-type:luminance" maskUnits="userSpaceOnUse" x="4" y="0" width="512" height="512">
<path d="M516 0H4V512H516V0Z" fill="white"/>
</mask>
<g mask="url(#mask0_34_25)">
<g filter="url(#filter0_d_34_25)">
<path d="M260 512C401.385 512 516 397.385 516 256C516 114.615 401.385 0 260 0C118.615 0 4 114.615 4 256C4 397.385 118.615 512 260 512Z" fill="#0656F8"/>
<path d="M320.534 70.9576C322.717 61.8262 317.085 52.6536 307.954 50.47C298.822 48.2864 289.65 53.9187 287.466 63.0501L279.573 96.0583C222.617 97.8673 177 144.609 177 202.004C177 241.769 209.235 273.004 249 273.004C252.543 273.004 256.04 272.753 259.531 272.503C263.012 272.253 266.487 272.004 270 272.004C290.987 272.004 308 288.017 308 309.004C308 348.768 275.765 381.004 236 381.004C215.013 381.004 198 363.991 198 343.004C198 341.765 198.133 340.557 198.384 339.394C200.459 351.108 210.691 360.004 223 360.004C239.569 360.004 253 346.573 253 330.004C253 309.017 235.987 292.004 215 292.004C186.833 292.004 164 314.837 164 343.004C164 372.068 181.221 397.109 206.015 408.482L198.466 440.05C196.283 449.182 201.915 458.354 211.046 460.538C220.178 462.721 229.35 457.089 231.534 447.958L239.427 414.95C296.383 413.141 342 366.399 342 309.004C342 269.239 309.764 238.004 270 238.004C266.447 238.004 262.942 238.255 259.447 238.506C255.969 238.755 252.499 239.004 249 239.004C228.013 239.004 211 222.991 211 202.004C211 162.24 243.235 130.004 283 130.004C303.987 130.004 321 147.017 321 168.004C321 169.243 320.867 170.451 320.616 171.614C318.541 159.9 308.309 151.004 296 151.004C279.431 151.004 266 164.435 266 181.004C266 201.991 283.013 219.004 304 219.004C332.167 219.004 355 196.171 355 168.004C355 138.94 337.779 113.898 312.985 102.526L320.534 70.9576Z" fill="#FFFFFE"/>
</g>
</g>
<g clip-path="url(#clip0_34_25)">
<path d="M92 348C140.601 348 180 308.601 180 260C180 211.399 140.601 172 92 172C43.3989 172 4 211.399 4 260C4 308.601 43.3989 348 92 348Z" fill="#0756F8"/>
<path fill-rule="evenodd" clip-rule="evenodd" d="M55.2974 206.555L48.3733 213.61L65.2689 230.821L82.1643 248.033V264.053V280.075H92.0099H101.855V264.053V248.033L118.71 230.863L135.564 213.693L128.597 206.602L121.63 199.51L106.911 214.464C98.8156 222.689 92.1116 229.418 92.0137 229.418C91.9153 229.418 85.202 222.687 77.0955 214.459C68.9885 206.232 62.3253 199.5 62.2884 199.5C62.2516 199.5 59.1056 202.675 55.2974 206.555ZM47.4915 247.904C45.2879 252.644 44.0117 256.728 43.1899 261.67C40.8401 275.799 44.5542 290.351 53.3982 301.664C54.8575 303.53 59.1512 307.902 60.9712 309.375C69.1634 316.003 78.4898 319.675 88.9513 320.391C95.2092 320.82 101.467 319.984 107.613 317.899C125.377 311.872 138.203 296.315 140.978 277.431C142.045 270.164 141.469 262.391 139.331 255.222C138.482 252.371 136.76 248.101 135.86 246.612L135.516 246.043L128.025 253.667C121.983 259.816 120.552 261.357 120.629 261.631C121.247 263.835 121.575 266.127 121.663 268.856C121.833 274.143 121.012 278.416 118.968 282.879C114.995 291.556 107.244 297.749 97.7673 299.818C96.1217 300.177 95.5167 300.218 91.9263 300.213C88.403 300.207 87.7111 300.16 86.1694 299.821C76.7732 297.753 69.3834 291.898 65.2144 283.219C63.3301 279.297 62.4771 275.667 62.3484 271.024C62.2554 267.665 62.4375 265.635 63.0678 262.991L63.4737 261.291L56.0071 253.684C51.9005 249.5 48.4956 246.077 48.4409 246.077C48.386 246.077 47.9587 246.899 47.4915 247.904Z" fill="white"/>
</g>
<defs>
<filter id="filter0_d_34_25" x="0" y="0" width="520" height="520" filterUnits="userSpaceOnUse" color-interpolation-filters="sRGB">
<feFlood flood-opacity="0" result="BackgroundImageFix"/>
<feColorMatrix in="SourceAlpha" type="matrix" values="0 0 0 0 0 0 0 0 0 0 0 0 0 0 0 0 0 0 127 0" result="hardAlpha"/>
<feOffset dy="4"/>
<feGaussianBlur stdDeviation="2"/>
<feComposite in2="hardAlpha" operator="out"/>
<feColorMatrix type="matrix" values="0 0 0 0 0 0 0 0 0 0 0 0 0 0 0 0 0 0 0.25 0"/>
<feBlend mode="normal" in2="BackgroundImageFix" result="effect1_dropShadow_34_25"/>
<feBlend mode="normal" in="SourceGraphic" in2="effect1_dropShadow_34_25" result="shape"/>
</filter>
<clipPath id="clip0_34_25">
<rect width="176" height="176" fill="white" transform="translate(4 172)"/>
</clipPath>
</defs>
</svg>
