<svg width="233" height="42" viewBox="0 0 233 42" fill="none" xmlns="http://www.w3.org/2000/svg">
<path fill-rule="evenodd" clip-rule="evenodd" d="M218.588 14.3243C220.465 14.3243 222.207 14.5631 223.764 15.0411L223.838 15.0636C225.416 15.5584 226.822 16.2502 228.015 17.1251L228.071 17.1671C229.308 18.0857 230.333 19.1958 231.114 20.4688L231.151 20.5294L231.152 20.5313C231.205 20.6189 231.258 20.7085 231.31 20.7979C231.83 21.7026 232.095 22.7286 232.075 23.7657C232.068 24.1453 232.023 24.5229 231.941 24.8917C232.686 25.8971 233.064 27.1466 232.991 28.4063V28.4093L232.989 28.4395C232.905 29.8533 232.593 32.0008 231.586 34.1749L231.363 34.6329C230.826 35.6895 230.162 36.6542 229.386 37.505C228.349 38.6413 227.109 39.5751 225.705 40.2823C223.572 41.3568 221.056 41.9067 218.239 41.9337H218.194C218.137 41.9345 218.079 41.9347 218.021 41.9347H210.009C207.613 41.9347 205.484 41.5954 203.689 40.9112C202.656 40.5172 201.71 40.0297 200.858 39.4532C199.809 40.7973 198.173 41.6641 196.338 41.6641H193.186C190.022 41.6639 187.45 39.0888 187.449 35.922V34.9845L181.059 29.8057C180.497 29.3509 179.84 29.0298 179.144 28.8624V35.922C179.143 39.0548 176.604 41.9346 173.407 41.9347H161.932C158.768 41.9346 156.194 39.3587 156.194 36.1915V35.2413H148.138V36.1915C148.138 39.3586 145.565 41.9345 142.401 41.9347H139.245C136.082 41.9346 133.509 39.3587 133.509 36.1915V28.0763C133.509 28.0147 133.509 27.953 133.51 27.8917H130.826V36.2569C130.826 39.4241 128.253 42.0001 125.089 42.0001H121.933C118.769 41.9999 116.196 39.424 116.196 36.2569V27.8917H112.612C112.668 28.0398 112.719 28.1903 112.765 28.3419L112.859 28.6739C113.069 29.4458 113.192 30.2039 113.226 30.9337L113.23 31.0147V31.7042L113.227 31.7716C113.192 32.6763 113.049 33.6062 112.8 34.5352L112.722 34.8077C112.307 36.1613 111.543 37.3793 110.461 38.4317C109.379 39.4837 107.947 40.3007 106.225 40.8751C104.617 41.4117 102.684 41.6651 100.337 41.6651H83.8858C81.9698 41.6651 80.2713 40.7198 79.2296 39.2735C78.285 39.9437 77.2189 40.5005 76.044 40.9376C74.25 41.6047 72.1446 41.9356 69.795 41.9356H61.5948C59.2074 41.9356 57.085 41.6032 55.297 40.9337C54.0729 40.4754 52.9697 39.8884 52.003 39.1788C50.9678 40.6786 49.2379 41.6651 47.2804 41.6651H44.1241C41.7597 41.665 39.727 40.2267 38.8497 38.1788L38.3331 38.9952C37.2758 40.6663 35.4622 41.6651 33.4864 41.6651H29.8761C27.9305 41.665 26.1329 40.6902 25.0704 39.0587L24.3839 38.003C23.5495 40.1442 21.4675 41.6651 19.0362 41.6651H15.88C12.7165 41.665 10.1436 39.0891 10.1436 35.922V32.5489C10.1437 32.26 10.3775 32.0255 10.6661 32.0255C10.9547 32.0255 11.1886 32.26 11.1886 32.5489V35.922C11.1886 38.5112 13.2937 40.6191 15.88 40.6192H19.0362C21.3709 40.6192 23.315 38.9004 23.67 36.6602C23.704 36.4467 23.866 36.2757 24.0772 36.2305C24.2886 36.1854 24.5061 36.2758 24.6241 36.4571L25.9464 38.4864C26.816 39.8219 28.2837 40.6191 29.8761 40.6192H33.4864C35.1042 40.6192 36.5846 39.8039 37.4503 38.4356L38.5694 36.6661L38.5802 36.6495C38.6968 36.4798 38.9031 36.3939 39.1065 36.4317C39.3165 36.4709 39.4817 36.6342 39.5235 36.8438C39.9524 38.994 41.8533 40.619 44.1241 40.6192H47.2804C49.0563 40.6192 50.6073 39.6252 51.4044 38.1602C51.4787 38.0237 51.6104 37.9266 51.7628 37.8966C51.9151 37.8666 52.0731 37.906 52.1935 38.004C53.1705 38.7995 54.3312 39.4555 55.6632 39.9542C57.3065 40.5695 59.2993 40.8888 61.5948 40.8888H69.795C72.0152 40.8887 73.9652 40.5801 75.6017 39.9845L75.6798 39.9561C76.9574 39.4809 78.0822 38.8604 79.0431 38.1085C79.1622 38.0153 79.3156 37.9781 79.464 38.0069C79.6124 38.0358 79.7419 38.1277 79.8175 38.2589C80.6296 39.6693 82.1502 40.6182 83.8858 40.6182H100.337C102.616 40.6182 104.428 40.3724 105.895 39.8829C107.503 39.3465 108.788 38.6 109.733 37.6807C110.764 36.6789 111.451 35.5296 111.79 34.2638C112.02 33.405 112.152 32.5526 112.183 31.7315L112.185 31.6749V31.0509L112.182 30.9815C112.148 30.2439 112.009 29.4587 111.764 28.6446C111.656 28.2883 111.517 27.9409 111.347 27.6046C111.265 27.4425 111.273 27.2495 111.368 27.0948C111.463 26.94 111.632 26.8458 111.814 26.8458H116.719C117.007 26.8458 117.241 27.0795 117.241 27.3682V36.2569C117.241 38.8461 119.347 40.954 121.933 40.9542H125.089C127.675 40.9542 129.78 38.8462 129.78 36.2569V27.3682C129.781 27.0796 130.015 26.846 130.303 26.8458H134.047C134.19 26.8458 134.326 26.9038 134.425 27.0069C134.523 27.11 134.576 27.2491 134.569 27.3917C134.559 27.6195 134.554 27.848 134.554 28.0763V36.1915C134.554 38.7808 136.659 40.8887 139.245 40.8888H142.401C144.988 40.8886 147.093 38.7807 147.093 36.1915V34.7179C147.093 34.4291 147.327 34.1954 147.615 34.1954H156.717C157.005 34.1954 157.24 34.4291 157.24 34.7179V36.1915C157.24 38.7808 159.345 40.8887 161.932 40.8888H173.407C175.96 40.8887 178.098 38.5461 178.099 35.922V28.2393C178.099 28.0904 178.163 27.9489 178.274 27.8497C178.385 27.7504 178.533 27.7029 178.681 27.7198C179.769 27.8442 180.812 28.2725 181.675 28.9591L181.716 28.9923L188.301 34.3282C188.423 34.4274 188.494 34.5767 188.494 34.7345V35.922C188.494 38.5109 190.6 40.618 193.186 40.6182H196.338C197.997 40.6182 199.459 39.7512 200.294 38.4425L200.302 38.4317C200.38 38.3156 200.503 38.2355 200.641 38.21C200.783 38.184 200.93 38.2176 201.046 38.3038C201.923 38.9551 202.93 39.5023 204.061 39.9337L204.138 39.963C205.772 40.5722 207.743 40.8878 210.009 40.8878H218.021C218.076 40.8878 218.131 40.8876 218.187 40.8868H218.23C220.918 40.861 223.271 40.3373 225.235 39.3477C226.508 38.7065 227.629 37.8649 228.569 36.8468L228.614 36.7989C229.427 35.9087 230.108 34.8781 230.638 33.7345C231.572 31.7178 231.866 29.7104 231.946 28.377V28.3741L231.948 28.3438C232.011 27.2597 231.656 26.1818 230.97 25.3458C230.863 25.2151 230.825 25.0403 230.869 24.877C230.969 24.5077 231.023 24.1268 231.03 23.7452C231.046 22.8999 230.83 22.0611 230.403 21.3194C230.356 21.2374 230.307 21.1544 230.257 21.0714C229.543 19.8935 228.6 18.8622 227.448 18.0069C226.35 17.1909 225.032 16.535 223.525 16.0626C222.067 15.6059 220.407 15.3702 218.588 15.3702H210.009C207.676 15.3702 205.65 15.7311 203.977 16.4259C202.911 16.8688 201.957 17.4161 201.12 18.0577C201.002 18.148 200.852 18.1847 200.706 18.1573C200.56 18.1298 200.432 18.0411 200.356 17.9141C199.532 16.5515 198.039 15.6408 196.339 15.6407H193.187C191.252 15.6407 189.585 16.8197 188.868 18.5011C188.807 18.6447 188.685 18.7538 188.535 18.7979C188.385 18.842 188.223 18.8164 188.094 18.7286C185.296 16.8274 181.992 15.7462 178.605 15.6339C178.56 15.6324 178.517 15.6251 178.477 15.6134H170.253C168.474 15.6134 166.921 16.6103 166.125 18.0792C166.053 18.2124 165.926 18.3073 165.778 18.3399C165.63 18.3725 165.475 18.3398 165.354 18.2491C164.454 17.5773 163.413 17.0149 162.238 16.5753C160.595 15.96 158.603 15.6407 156.308 15.6407H148.107C145.851 15.6407 143.874 15.9589 142.222 16.5733C141.366 16.8917 140.579 17.2753 139.863 17.7198C139.631 17.8644 139.326 17.8048 139.165 17.5831C138.31 16.4055 136.925 15.6407 135.367 15.6407H90.6534C88.383 15.6407 86.5788 15.8865 85.1231 16.3761L85.0548 16.3995C84.2313 16.6829 83.5065 17.0103 82.8683 17.3839C82.6508 17.511 82.3736 17.4644 82.2091 17.2735C81.3468 16.2732 80.0739 15.6407 78.6563 15.6407H75.5001C72.9138 15.6407 70.8087 17.7486 70.8087 20.338V29.2423C70.8086 29.5311 70.5747 29.7657 70.2862 29.7657H61.1837C60.8953 29.7656 60.6613 29.531 60.6612 29.2423V20.338C60.6612 17.7486 58.5561 15.6407 55.9698 15.6407H40.3829C38.7662 15.6409 37.287 16.4562 36.421 17.8233L32.0216 24.7706C31.9264 24.9206 31.7616 25.0115 31.5841 25.0128C31.4062 25.0139 31.2397 24.9246 31.1427 24.7755L26.587 17.7745C25.9089 16.7324 24.8675 16.019 23.6876 15.755L23.631 15.7423L23.6183 15.7393C23.3435 15.6741 23.1692 15.4014 23.2276 15.1231C23.2871 14.8404 23.5644 14.6593 23.8468 14.7188C25.3198 15.0295 26.622 15.9108 27.463 17.2032L31.5743 23.5225L35.5382 17.2628C36.5958 15.5932 38.4081 14.595 40.3829 14.5948H55.9698C59.1334 14.5948 61.7061 17.1708 61.7061 20.338V28.7188H69.7638V20.338C69.7638 17.1708 72.3366 14.5948 75.5001 14.5948H78.6563C80.2371 14.5948 81.6705 15.2385 82.7081 16.2755C83.3178 15.9488 83.9853 15.6614 84.7149 15.4102L84.7901 15.3848C86.3887 14.8472 88.3148 14.5938 90.6534 14.5938H135.367C137.103 14.5938 138.661 15.3706 139.713 16.5919C140.38 16.2096 141.096 15.8764 141.858 15.5929L141.942 15.5616C143.718 14.9153 145.793 14.5938 148.107 14.5938H156.308C158.695 14.5939 160.817 14.9263 162.605 15.5958L162.723 15.6397C163.741 16.0304 164.674 16.512 165.513 17.0792C166.546 15.5648 168.284 14.5665 170.253 14.5665H178.621C178.678 14.5665 178.734 14.5759 178.785 14.5929C182.12 14.7294 185.371 15.7525 188.181 17.5343C189.163 15.7823 191.038 14.5938 193.187 14.5938H196.339C198.217 14.594 199.886 15.5028 200.932 16.9005C201.732 16.3409 202.616 15.8594 203.577 15.46C205.405 14.701 207.573 14.3243 210.009 14.3243H218.588ZM135.367 18.6788C136.283 18.6789 137.025 19.4218 137.025 20.3389V22.1485C137.025 23.0659 136.284 23.8095 135.367 23.8096H126.748V36.2569C126.748 37.1743 126.005 37.918 125.089 37.918H121.933C121.017 37.9179 120.275 37.1743 120.275 36.2569V23.8096H111.628C110.712 23.8094 109.97 23.0658 109.97 22.1485V20.3389C109.97 19.4223 110.712 18.679 111.628 18.6788H135.367ZM156.308 18.6778C158.232 18.6778 159.854 18.9264 161.176 19.421C162.498 19.9156 163.573 20.5862 164.4 21.4327L164.4 21.4337C165.228 22.2795 165.826 23.2746 166.194 24.418C166.563 25.561 166.748 26.7811 166.748 28.0772V36.1925C166.748 37.1099 166.005 37.8535 165.089 37.8536H161.933C161.016 37.8536 160.274 37.1099 160.274 36.1925V31.1602H144.061V36.1925C144.061 37.1099 143.318 37.8536 142.401 37.8536H139.245C138.329 37.8535 137.587 37.1098 137.587 36.1925V28.0772C137.587 26.7986 137.779 25.5874 138.166 24.4444C138.553 23.3009 139.169 22.3022 140.014 21.4473C140.859 20.5919 141.948 19.9161 143.278 19.421C144.609 18.9259 146.218 18.6778 148.107 18.6778H156.308ZM218.587 18.4083C220.098 18.4083 221.442 18.5933 222.62 18.962C223.798 19.3311 224.805 19.8262 225.642 20.4473C226.478 21.0684 227.153 21.8027 227.665 22.6485C227.703 22.7109 227.739 22.7742 227.775 22.837C228.411 23.9423 227.609 25.3223 226.335 25.3223H222.659C222.202 25.3223 221.759 25.1395 221.451 24.8018C221.157 24.4796 220.738 24.2077 220.192 23.9854C219.374 23.6523 218.344 23.4854 217.104 23.4854H211.52C210.405 23.4855 209.497 23.6209 208.796 23.8907C208.095 24.1606 207.537 24.521 207.123 24.9708C206.709 25.4207 206.425 25.9388 206.273 26.5235C206.12 27.1086 206.044 27.7072 206.044 28.3194C206.044 28.9317 206.12 29.5125 206.273 30.0616C206.425 30.6111 206.709 31.0881 207.123 31.4932C207.537 31.8983 208.095 32.2183 208.796 32.4522C209.497 32.6865 210.405 32.8028 211.52 32.8028H217.373C218.812 32.8028 219.932 32.6414 220.733 32.3175C221.533 31.9931 222.095 31.4526 222.418 30.6964H215.067C214.151 30.6964 213.408 29.9527 213.408 29.0352V28.4679C213.408 27.551 214.151 26.8077 215.067 26.8077H227.634C228.374 26.8078 228.963 27.4311 228.92 28.171C228.919 28.1793 228.919 28.188 228.919 28.1964C228.788 30.377 227.979 34.569 223.872 36.6378C222.428 37.3656 220.576 37.83 218.201 37.8526C218.141 37.853 218.081 37.8536 218.021 37.8536H210.009C208.085 37.8536 206.462 37.6016 205.14 37.0977C203.818 36.5938 202.743 35.9093 201.916 35.045C201.089 34.1808 200.49 33.1731 200.122 32.0206C199.753 30.8685 199.569 29.6438 199.569 28.3477C199.569 27.0515 199.753 25.804 200.122 24.6065C200.49 23.4097 201.089 22.3519 201.916 21.4337C202.743 20.5154 203.818 19.782 205.14 19.2325C206.462 18.6834 208.084 18.4083 210.009 18.4083H218.587ZM78.6544 18.6778C79.5708 18.6778 80.3136 19.4215 80.3136 20.3389V28.4542C80.3135 29.7325 80.121 30.9432 79.7345 32.086C79.3478 33.2299 78.7311 34.229 77.8858 35.0841C77.0401 35.9395 75.9528 36.6153 74.6222 37.1104C73.2912 37.6055 71.6822 37.8526 69.794 37.8526H61.5929C59.6687 37.8526 58.0455 37.6055 56.7237 37.1104C55.4019 36.6157 54.327 35.9444 53.5001 35.0977C52.6731 34.2521 52.0754 33.2574 51.7071 32.1143C51.3384 30.9714 51.1535 29.7512 51.1534 28.4552V20.3389C51.1536 19.4222 51.8965 18.6789 52.8126 18.6788H55.9688C56.8847 18.6788 57.6278 19.4217 57.628 20.3389V32.8028H73.8399V20.3389C73.8402 19.4221 74.5839 18.6788 75.5001 18.6788H78.6563L78.6544 18.6778ZM175.066 18.6622H178.019C181.417 18.6622 184.744 19.8413 187.385 21.9815L191.526 25.338V20.3389C191.527 19.4223 192.27 18.679 193.186 18.6788H196.339C197.255 18.679 197.998 19.4226 197.998 20.3399V35.9229C197.998 36.8401 197.255 37.5838 196.339 37.5841H193.187C192.27 37.5841 191.528 36.8403 191.527 35.9229V33.0382L183.624 26.6339C182.044 25.3532 180.053 24.6476 178.02 24.6475H175.066V36.0899C175.066 37.0073 174.324 37.751 173.407 37.7511H170.253C169.337 37.7511 168.593 37.0074 168.593 36.0899V20.3126C168.593 19.3956 169.337 18.6514 170.253 18.6514H175.066V18.6622ZM106.197 18.6788C107.113 18.679 107.856 19.4219 107.857 20.3389V22.0948C107.857 23.0121 107.114 23.7557 106.197 23.7559H93.7813C93.1622 23.7559 92.607 23.7593 92.1153 23.7647H88.2872V25.7208H101.372C102.806 25.7785 103.995 25.9605 104.937 26.2677C106.096 26.646 106.991 27.1186 107.62 27.6856C108.249 28.2527 108.662 28.8655 108.86 29.5225C109.032 30.0928 109.13 30.6258 109.152 31.1212V31.6173C109.13 32.2178 109.032 32.8379 108.86 33.4786C108.662 34.2173 108.249 34.8931 107.62 35.505C106.991 36.1171 106.096 36.6159 104.937 37.003C103.777 37.3901 102.243 37.584 100.337 37.5841H83.8849C82.9687 37.5839 82.2258 36.8402 82.2257 35.9229V34.1671C82.2259 33.2503 82.9688 32.5071 83.8849 32.5069H97.2081C98.2831 32.5069 99.1722 32.502 99.8761 32.4932H102.701V30.5372H89.5118C88.1107 30.4752 86.9525 30.2953 86.0392 29.9952C84.8885 29.6169 83.9984 29.1442 83.3692 28.5772C82.7396 28.0101 82.3258 27.3978 82.128 26.7403C81.9299 26.0833 81.8311 25.4753 81.8311 24.9171C81.8312 24.2329 81.9299 23.5215 82.128 22.7833C82.3258 22.0455 82.7397 21.375 83.3692 20.7716C83.9984 20.1686 84.8881 19.6688 86.0392 19.2725C87.1896 18.8766 88.7277 18.6788 90.6524 18.6788H106.197ZM22.6554 18.6788C23.2162 18.6789 23.739 18.9624 24.045 19.4327L31.6202 31.0753L38.9815 19.4503C39.2859 18.9699 39.8148 18.6788 40.3829 18.6788H47.2804C48.1966 18.6788 48.9393 19.4217 48.9395 20.3389V35.922C48.9395 36.8394 48.1967 37.5831 47.2804 37.5831H44.1241C43.2077 37.5831 42.4649 36.8394 42.4649 35.922V24.836L34.8878 36.8116C34.5839 37.2924 34.0549 37.583 33.4864 37.5831H29.8761C29.3151 37.5831 28.7929 37.2995 28.4864 36.8292L20.6954 24.8634V35.922C20.6954 36.8393 19.9525 37.5829 19.0362 37.5831H15.88C14.9636 37.5831 14.2208 36.8394 14.2208 35.922V20.3389C14.2211 19.4222 14.9638 18.6788 15.88 18.6788H22.6554ZM10.712 7.85984e-05C10.9998 0.00524066 11.2245 0.252456 11.2247 0.540118V11.003C11.2249 12.0594 12.5005 12.5887 13.2472 11.8419L16.2061 8.87996C16.4122 8.6732 16.7528 8.67962 16.9522 8.8868C17.1514 9.09399 17.1362 9.42816 16.9327 9.63191L13.9864 12.5811C13.2398 13.3286 13.7687 14.6065 14.8243 14.6065H20.7393C21.027 14.6065 21.274 14.8268 21.2794 15.1202C21.2846 15.4133 21.0485 15.6523 20.7569 15.6524H14.7804C12.8168 15.6524 11.2247 17.2461 11.2247 19.212V29.6104C11.2247 29.9026 10.9805 30.1389 10.6925 30.1339C10.4047 30.1286 10.1799 29.8815 10.1798 29.5938V19.2569C10.1797 18.2004 8.90396 17.671 8.15732 18.418L5.19833 21.38C5.0964 21.482 4.96288 21.5332 4.82919 21.5333C4.69542 21.5333 4.56108 21.4821 4.45908 21.38C4.25582 21.1765 4.26675 20.8323 4.46982 20.629L7.41806 17.6788C8.16469 16.9313 7.63573 15.6534 6.58017 15.6534H0.522553C0.230962 15.6532 -0.00534004 15.4134 9.1808e-05 15.1202C0.00514756 14.8319 0.25254 14.6065 0.540131 14.6065H6.58017C7.63545 14.6062 8.16362 13.3285 7.41708 12.5811L4.45908 9.61922C4.25312 9.41254 4.25506 9.07696 4.46591 8.87313C4.67276 8.67357 5.00644 8.68809 5.21005 8.89168L8.15634 11.8419C8.90298 12.5894 10.1798 12.0598 10.1798 11.003V0.523516C10.1798 0.231378 10.424 -0.00494382 10.712 7.85984e-05ZM146.158 23.7296C145 23.7296 144.06 24.6691 144.06 25.8292H160.273C160.272 24.6695 159.333 23.7296 158.174 23.7296H146.158Z" fill="white"/>
</svg>
