<svg width="32" height="32" viewBox="0 0 32 32" fill="none" xmlns="http://www.w3.org/2000/svg">
<path d="M16 0H2.66018C1.19095 0 0 1.19095 0 2.66018C0 4.12942 1.19095 5.32037 2.66018 5.32037H5.32037H15.507H16.0767C21.9328 5.32037 26.6802 10.0677 26.6802 15.9239V16.0761C26.6802 21.9323 21.9328 26.6796 16.0767 26.6796H6.53104C5.8627 26.6796 5.32037 26.1378 5.32037 25.469V17.1181C5.32037 16.4498 5.86216 15.9074 6.53104 15.9074H17.7415C19.2096 15.9074 20.4 14.717 20.4 13.2489C20.4 11.7807 19.2096 10.5903 17.7415 10.5903H2.92807C1.31092 10.5903 0 11.9013 0 13.5184V15.9074V29.0719C0 30.6891 1.31092 32 2.92807 32H16C24.8368 32 32 24.8368 32 16C32 7.16321 24.8368 0 16 0Z" fill="url(#paint0_linear_4058_461)"/>
<path d="M14.1169 21.4951C14.1169 20.0269 12.9265 18.8365 11.4583 18.8365C9.9902 18.8365 8.7998 20.0269 8.7998 21.4951C8.7998 22.9632 9.9902 24.1536 11.4583 24.1536C12.9265 24.1536 14.1169 22.9632 14.1169 21.4951Z" fill="#E5E889"/>
<defs>
<linearGradient id="paint0_linear_4058_461" x1="16" y1="0" x2="16" y2="32" gradientUnits="userSpaceOnUse">
<stop stop-color="#67FFF7"/>
<stop offset="0.485" stop-color="#7CE4AF"/>
<stop offset="1" stop-color="#678DFF"/>
</linearGradient>
</defs>
</svg>
