<svg width="32" height="32" viewBox="0 0 32 32" fill="none" xmlns="http://www.w3.org/2000/svg">
<g clip-path="url(#clip0_6075_445)">
<path d="M16.2768 0.000145296C7.27818 -0.123594 -0.0684876 7.22307 0.0552515 16.2217C0.171765 24.7037 7.34863 31.8806 15.8306 31.9971C24.8292 32.1208 32.1759 24.7741 32.0522 15.7755C31.9357 7.29352 24.7588 0.115755 16.2768 0.000145296ZM16.4547 1.81017C23.9297 2.017 30.0001 8.06215 30.2394 15.5353C30.2927 17.1881 30.0606 18.7814 29.5891 20.269C29.4762 20.6248 29.0508 20.7693 28.7446 20.5571L17.2965 12.6125C16.5559 12.0986 15.5579 12.0932 14.8118 12.5971L3.01415 20.5742C2.85067 20.6844 2.62758 20.6077 2.56616 20.4207C2.10824 19.028 1.85985 17.5422 1.85985 15.9986C1.85985 8.03866 8.44602 1.58798 16.4547 1.81017ZM16.0537 30.1925C15.4666 30.1925 14.8877 30.1563 14.3187 30.0868C14.0585 30.0552 14.0043 29.7029 14.2428 29.5954C16.5947 28.5396 18.3804 27.5777 19.5699 26.7251C20.5733 26.0061 21.8794 24.8898 21.6382 23.5124C21.3655 21.9552 19.4073 21.444 17.3345 20.9021C15.6319 20.4568 13.513 19.9032 13.2366 18.8834C12.944 17.805 13.8409 16.331 15.7204 14.7441C16.1142 14.4117 16.6823 14.3873 17.1059 14.6808L28.1034 22.3129C28.3843 22.508 28.4646 22.8855 28.2912 23.18C25.8237 27.3718 21.2616 30.1925 16.0537 30.1925Z" fill="url(#paint0_linear_6075_445)"/>
</g>
<defs>
<linearGradient id="paint0_linear_6075_445" x1="16.0537" y1="-1.17326" x2="16.0537" y2="31.9986" gradientUnits="userSpaceOnUse">
<stop stop-color="#FFB404"/>
<stop offset="1" stop-color="#FF7004"/>
</linearGradient>
<clipPath id="clip0_6075_445">
<rect width="32" height="32.0009" fill="white" transform="translate(0 -0.000457764)"/>
</clipPath>
</defs>
</svg>
